<?xml version="1.0" standalone="yes"?>
<svg xmlns="http://www.w3.org/2000/svg" width="240" height="240">
<path style="fill:#ffffff; stroke:none;" d="M0 0L0 240L240 240L240 0L0 0z"/>
<path style="fill:#010101; stroke:none;" d="M174 146L172.329 146.354L171.841 146.498L170.84 146.769L168.975 147.389C167.607 147.914 166.264 148.474 165 149.225C162.791 150.537 160.841 152.24 159.019 154.04C157.471 155.568 156.005 157.174 154.815 159C154.193 159.954 153.685 160.975 153.194 162C152.72 162.987 152.283 163.994 151.851 165L150.619 168C150.12 169.306 149.654 170.625 149.379 172C149.115 173.321 149.047 174.657 149.015 176L149 179L149.015 182C149.048 183.343 149.111 184.681 149.39 186C149.756 187.734 150.472 189.349 151.093 191L151.471 192L152.181 193.996L152.548 194.985L152.966 195.961L154.005 197.83C155.111 199.47 156.584 200.767 158.043 202.079L160.004 203.738L162 205.323C163.589 206.528 165.227 207.676 167 208.597L169 209.518L170 209.891L172 210.471L174 210.815C175.324 210.98 176.668 210.988 178 210.996L183 211C185.333 210.999 187.679 211.065 190 210.787C191.026 210.664 192.028 210.373 193 210.034L195 209.2L196 208.722C197.019 208.194 198.026 207.657 199 207.049C200.392 206.178 201.712 205.201 202.996 204.181L204.957 202.56L205.895 201.711L206.786 200.829L207.606 199.91C208.384 199.035 209.017 198.016 209.583 196.996C210.112 196.043 210.55 195.02 210.931 194C211.422 192.682 211.871 191.353 212.255 190L213.282 186L214.405 182L214.624 181C214.832 180.019 214.91 179.001 214.917 178C214.926 176.653 214.758 175.318 214.486 174C214.278 172.989 213.987 171.998 213.73 171L213.22 169L212.703 167C212.401 165.986 212.087 164.961 211.637 164L210.647 162.004L210.069 161.015L209.451 160.039L208.073 158.17L206.532 156.428L204.826 154.758C203.326 153.37 201.742 152.063 199.999 150.99C199.037 150.398 198.027 149.907 197 149.439C195.67 148.833 194.293 148.311 193.019 147.586C191.716 146.845 190.509 145.964 189.564 144.786C188.887 143.941 188.41 142.988 188.018 141.985C187.64 141.017 187.402 140 187.131 139L186.623 137L186.086 135C185.776 133.984 185.457 132.981 185.046 132C184.175 129.924 182.989 128 181.965 126C181.284 124.669 180.698 123.285 179.929 122.001C179.297 120.946 178.583 119.966 177.775 119.039C176.357 117.411 174.699 116.003 172.999 114.68C170.69 112.882 168.215 111.304 165.671 109.862L164 109L165.099 107.329L165.377 106.841L165.978 105.84L168.092 101.998L169.786 99.0008L170.924 97.0193L172.104 95.1443L172.753 94.3032L174.263 92.9383C175.102 92.3569 176.055 92.0122 177.019 91.7052L179.001 91.1759L181 90.6343C182.343 90.2397 183.672 89.7877 185 89.3472L186.996 88.6952L187.985 88.3117L189.896 87.2623C191.485 86.148 192.704 84.6261 193.713 82.9846L194.772 80.9992L195.181 80L195.501 79L195.867 77L195.978 75L195.98 74.0008L195.891 72.0154L195.566 70.1088L195.258 69.2284L194.821 68.4344L193.566 67.1944L192.772 66.7855L190.961 66.4383L190.009 66.4846L189.041 66.6474L188.16 66.8796L186.671 67.3858L185 68L184.771 69.6713L184.617 70.1582L184.346 71.1559L183.543 72.9699L182.347 74.723L181.606 75.4861L180.786 76.142L178.957 77.1065L176.996 77.6559L175 77.9059L172 77.9961L168 78L146 78L140 78.0039C139.002 78.0178 138.012 78.0387 137.015 78.1088L135.11 78.4336L133.444 79.179L132.767 79.7423L131.826 81.2284L131.411 83.044L131.411 84.9992L131.565 85.9815L131.826 86.9414L132.23 87.8519L133.444 89.3966L134.231 89.9722L136.044 90.6821L137.015 90.8519L139.001 90.9807L141 90.9992L144 91L149 91.0008L151.995 91.0401L153.955 91.1782L155.841 91.4784L156.329 91.5679L158 92L155.46 96.0448L153.578 98.9977L151.826 101.891L150.505 103.566L148.867 104.821C147.681 105.498 146.341 105.756 144.999 105.891C143.674 106.025 142.33 105.992 141 105.999L136 106L127 106L73 106C72.6903 104.332 72.3369 102.666 72.169 100.975C72.0047 99.3214 72.0088 97.6599 72.0008 96L72 91L72.0008 85C72.0094 83.3354 71.9768 81.653 72.2091 80C72.4988 77.939 73.1939 75.9788 73.8102 74C74.542 71.6501 75.1963 69.2533 76.4028 67.0895C77.2859 65.5057 78.4444 64.1246 79.591 62.7299C80.7608 61.3073 81.9092 59.8253 83.3248 58.6335C84.7371 57.4445 86.3696 56.5953 88.0039 55.76L90 54.7816L92 53.8773L94 53.1188L95 52.8248L97 52.4738C98.3352 52.3409 99.6699 52.4765 101 52.5903L104 52.831C105.002 52.8765 105.997 52.8791 107 52.8441L108.999 52.7392L110.985 52.6844L113.83 52.7145C114.987 52.7005 116.151 52.6362 117.285 52.3974L119.086 51.9174L120.024 51.5417L120.971 51.0509L121.894 50.4329L123.551 48.8557L124.214 47.9421L124.712 46.9815L125.133 45.0185L124.712 43.1481L124.214 42.3179L123.551 41.6034L122.768 41.0278L120.956 40.3179L118.996 40.0586L116 40.0008L112 39.9645L109 39.804C108 39.7545 107.003 39.6821 106 39.7099L102 39.9105L100 39.8974C98.6615 39.839 97.3345 39.6369 96 39.5285L95 39.4946L93 39.6844L92 39.9051L90 40.4645C88.6549 40.8646 87.3034 41.2463 86 41.7716C84.6193 42.3281 83.3051 43.0232 82 43.7353C80.2865 44.6703 78.5904 45.6527 77 46.7878C75.2643 48.0267 73.6554 49.4249 72.0903 50.8704L70.3002 52.5795L69.4637 53.4252L67.8889 55.1698C67.125 56.0968 66.3689 57.0291 65.6806 58.0147C64.8061 59.2666 63.9539 60.5722 63.3904 62L63.0031 63L62.3927 65C62.0449 66.3259 61.7307 67.6562 61.4599 69C61.2599 69.9923 61.1362 70.9996 60.9853 72L60.8264 73L60.3742 75L60.0648 76L59.3981 78L58.919 80C58.6658 81.6626 58.8613 83.3326 58.9259 85C58.9906 86.6669 58.9974 88.3321 59 90L59 111L59 122L58.9954 124L58.9414 125.995C58.8693 126.962 58.7755 127.965 58.3966 128.87L57.9722 129.736L56.6821 131.231L55.8519 131.853L53.9807 132.867L51.9992 133.63L49 134.584L47 135.359L45 136.324L42.0039 138.015C40.679 138.795 39.3571 139.628 38.1705 140.61C36.9366 141.63 35.8225 142.797 34.8187 144.043C34.0406 145.009 33.2841 145.987 32.5694 147.001C31.879 147.98 31.2377 148.992 30.5903 150L29.3241 152C28.7119 152.988 28.079 153.967 27.5424 155L26.6088 157L25.9005 159L25.598 160L25.0548 162L24.6844 164L24.6088 166L24.8449 169L24.9614 171C25.0391 172.998 24.9963 175.001 25.0008 177C25.003 177.999 24.9915 179.002 25.0401 180C25.0888 181 25.1373 182.014 25.3256 183L25.5177 184L26.0432 186C26.3712 187.006 26.6886 188.011 27.0687 189C27.4616 190.022 27.9039 191.013 28.3765 192C28.871 193.033 29.4688 194.025 30.0687 194.999C30.6913 196.01 31.3581 196.989 32.0394 197.961L33.4784 199.83L34.2361 200.715L36.6157 203.282C38.3124 205.078 39.9908 206.912 42.0147 208.352C44.9958 210.473 48.5432 211.528 52 212.586L55 213.501L58 214.402L60 214.791C60.9936 214.931 61.9986 214.961 63 214.985L66 214.999C68.0057 214.993 70.0142 214.997 72 214.675C73.6927 214.401 75.3314 213.881 77 213.498C78.6624 213.117 80.3697 212.89 82 212.377C84.5225 211.583 86.8292 210.271 89 208.779C91.8887 206.795 94.5125 204.462 96.9853 201.985C97.9549 201.014 98.8925 200.019 99.8117 199L101.443 197C102.169 196.066 102.787 195.037 103.351 194C104.209 192.421 104.909 190.732 105.391 189C105.848 187.359 106.001 185.661 106.36 184L106.86 182L107.406 180L107.791 178L107.896 177L107.985 175L107.998 173C107.991 171.335 108.021 169.654 107.791 168L107.406 166L106.579 163L105.891 160L105.378 158L105.038 157L104.2 155L103.722 154L102.648 152L101.377 150L100.649 149C99.8671 147.987 99.0685 146.992 98.2423 146.015C97.4221 145.045 96.5836 144.099 95.7137 143.174L94.8302 142.3L93.9105 141.464C92.6433 140.392 91.3405 139.367 89.9992 138.39C88.4033 137.226 86.7813 136.104 85 135.239C84.027 134.767 83.0201 134.407 82 134.054L81 133.749L79.0008 133.217L78.0046 132.956L77.0193 132.66L76.0586 132.298L74.3179 131.262L73.0278 129.772L72.6034 128.891L72.3187 127.956L72.1528 126.985L72.0779 125.003C72.1508 123.37 72.4884 121.7 73.6034 120.438L74.3179 119.757L75.1481 119.218L77.0193 118.603L79.0008 118.532C80.3341 118.627 81.6606 118.829 83 118.822L85 118.7L87 118.424C87.9995 118.288 88.9931 118.158 90 118.09C91.6628 117.976 93.3345 118.003 95 118L103 118L123 118L130 118C131.666 118.003 133.337 117.976 135 118.09L137 118.285C138.333 118.467 139.661 118.697 141 118.831C142.33 118.964 143.667 118.992 145 119.082L149 119.449C150.678 119.606 152.366 119.669 154 120.121C155.399 120.509 156.696 121.14 158 121.765L159 122.264L161 123.352L162 123.966L163 124.637L164.996 126.213L166.956 128.043L167.892 129.015C168.774 129.935 169.588 130.944 170.301 132C171.144 133.249 171.8 134.607 172.366 136C172.762 136.976 173.126 137.978 173.39 138.998L173.79 140.975L173.957 142.84C174.016 143.888 173.991 144.953 174 146z"/>
<path style="fill:#ffffff; stroke:none;" d="M61 144.468C59.6437 144.723 58.3014 145.089 57 145.548L55 146.338L54 146.796L52 147.8L50.0008 148.966L48.0154 150.39L47.0432 151.213L46.1049 152.105L44.3897 154.015L43.6343 155.004L42.3241 157L41.7353 158L40.5949 160C39.8849 161.302 39.1753 162.594 38.6844 164C38.2319 165.296 37.9942 166.652 37.7585 168C37.5276 169.32 37.2802 170.659 37.2091 172L37.2091 174L37.4282 176L37.7184 178L38.1983 182L38.3866 183C38.5897 184.029 38.9521 185.039 39.3673 186C40.4761 188.566 42.1077 190.867 44.1049 192.816C45.5995 194.274 47.3077 195.489 49 196.702L51 198.111L52 198.79L53 199.441L55 200.572L57 201.423C58.2956 201.88 59.6331 202.144 61 202.262L63 202.34L65 202.401L68 202.555C69.0147 202.554 70.0025 202.468 71 202.28C72.0265 202.087 73.012 201.772 74 201.44L76 200.601C77.0386 200.139 78.0103 199.534 79 198.981L81 197.756L82.9961 196.39L83.9853 195.621L84.9599 194.79C85.907 193.898 86.8487 192.997 87.6713 191.985L89.2114 189.999L90.5316 188C91.1152 187.015 91.6775 186.025 92.1898 185C92.6813 184.017 93.117 183.017 93.5316 182L94.2114 180C94.5145 179.028 94.6893 178.008 94.8148 177L94.9591 175L94.9815 173C94.9563 172.003 94.9563 170.991 94.8256 170L94.5208 168L94.2917 167L93.6705 165L92.8148 163L92.3063 162L91.1852 160L89.9954 158.004L88.7608 156.039L88.1103 155.09L87.4298 154.174L86.7106 153.301L85.9599 152.468C84.9385 151.429 83.8896 150.42 82.7106 149.559C81.249 148.49 79.6412 147.681 77.9961 146.938L76 146.09L74 145.381C72.0377 144.81 70.0373 144.368 68 144.171C65.6651 143.945 63.3064 144.033 61 144.468M179 158.688L178 158.919L176 159.543L175 159.904L173 160.754L172 161.275L170.001 162.569L169.005 163.343L167.059 165.094L166.148 166.04L165.317 167.015L164.013 169.001C163.199 170.546 162.885 172.296 162.596 174C162.426 174.998 162.296 175.991 162.209 177L162.18 178L162.315 180L162.468 181C162.667 182.008 162.887 183.009 163.16 184C163.634 185.721 164.188 187.444 165.089 188.996C166.74 191.841 169.244 194.112 172.001 195.867C173.546 196.85 175.229 197.695 177 198.185C177.984 198.458 178.978 198.62 180 198.645C181.344 198.678 182.674 198.442 184 198.266L186 197.981L187 197.811L189 197.265L190.999 196.297L191.996 195.656L193.96 194.177C195.514 192.916 196.971 191.536 198.15 189.91C199.242 188.403 200.042 186.707 200.767 185C201.184 184.019 201.58 183.017 201.902 182C202.312 180.704 202.638 179.37 202.602 178C202.545 175.881 201.661 173.915 200.842 172C200.262 170.646 199.682 169.271 198.926 168.004C198.306 166.964 197.597 165.996 196.775 165.105L194.956 163.39L193.985 162.638L191.999 161.367L190 160.367L188 159.623L187 159.351L185 158.939C184.004 158.76 183.007 158.628 182 158.532L181 158.495L179 158.688z"/>
</svg>
