<?xml version="1.0" standalone="yes"?>
<svg xmlns="http://www.w3.org/2000/svg" width="240" height="240">
<path style="fill:#fefefe; stroke:none;" d="M0 0L0 240L240 240L240 0L0 0z"/>
<path style="fill:#020202; stroke:none;" d="M113 10.6489C111.589 11.0739 110.274 11.7394 109 12.4684C107.63 13.252 106.322 14.1403 105 15L101 17.5748L97 20.0031C94.9582 21.2485 92.9303 22.5086 91 23.9236C89.2778 25.1861 87.6476 26.5603 86 27.9167L84 29.5509L82 31.1165L79 33.4599C77.3077 34.8536 75.6643 36.3026 74 37.7292C72.3199 39.1692 70.6198 40.5807 69 42.0895C67.6358 43.3602 66.3161 44.6799 65.0008 46.0008C63.3645 47.644 61.7384 49.2916 60.1698 51C58.9787 52.2972 57.874 53.6718 56.7184 55C54.9733 57.0057 53.1438 58.9383 51.4637 61C49.8987 62.9206 48.4414 64.9315 47.0787 67C45.9973 68.6415 44.993 70.3342 43.9498 72C43.1161 73.3313 42.2414 74.6414 41.4522 76L40.3125 78C39.6111 79.3169 38.9361 80.6457 38.3094 82C37.6992 83.3187 37.148 84.6635 36.5787 86L35.2801 88.9992L33.956 91.9568L32.9259 93.7863C32.3313 94.6257 31.6356 95.4259 30.7755 96.0062L28.956 97.0957L27.9846 97.561C26.2988 98.3214 24.5732 99.009 23 99.9938L21.0039 101.394L20.0154 102.214L19.0432 103.105L17.2137 105.015L16.3935 106.004L15.6489 107.001L14.4174 109L13.9198 110L13.1049 112C12.5217 113.622 12.1453 115.313 11.8079 117C11.5439 118.319 11.2832 119.657 11.1705 121L11.0394 123L11.0015 126C10.9959 127.332 10.9985 128.67 11.0895 130C11.2503 132.348 11.7497 134.652 11.9105 137C11.9789 137.998 11.9873 139 11.9961 140L12 144L12 155L12 172L11.9992 177C11.9912 178.669 11.9885 180.337 11.8302 182C11.6709 183.675 11.3285 185.325 11.1698 187C11.0442 188.325 10.9827 189.669 11.0185 191L11.0934 193L11.1852 194L11.5332 196L11.804 196.999L12.1481 197.996L12.5725 198.985L13.7029 200.891L15.2245 202.566L16.108 203.258L18.0154 204.258L20.0008 204.772L22 204.956L27 205.001C27.9985 205.003 29.0024 204.99 30 205.04L32 205.189L32.9992 205.344L33.9961 205.573L35.9568 206.318L37.787 207.514L39.3665 209.133C40.3521 210.332 41.0948 211.713 41.9506 213.001C42.6436 214.044 43.3894 215.041 44.213 215.985L46.0432 217.907L47.0154 218.815L49.0008 220.468L50 221.2L52 222.468L54 223.481L55 223.906L57 224.637C57.9756 224.979 58.989 225.266 60 225.482C60.9925 225.694 61.9885 225.829 63 225.907C64.3311 226.009 65.6672 225.979 67 226.038L69 226.155L72 226.405C73.0025 226.459 74.0042 226.411 75 226.292C76.018 226.169 77.0064 225.94 78 225.695L79 225.401L81 224.651C82.0167 224.2 83.0178 223.727 84 223.204C85.0229 222.659 86.0269 222.082 87 221.452L88.9992 220.073L89.9961 219.319L91.9599 217.699L93.8156 215.91L94.6752 214.961L96.2546 212.997L97.7454 211.015L98.5139 210.044L100.184 208.228L101.093 207.434L103.015 206.179C103.957 205.695 104.959 205.406 106 205.228C106.993 205.059 107.998 205.056 109 205.015L110 205.004L113 205L125 205L129 205.004C129.998 205.013 131.005 205.007 132 205.094L133.996 205.344L134.985 205.573L135.96 205.894L137.816 206.858C139.755 208.17 141.05 210.16 142.424 212.005L143.899 213.999L145.465 215.985L146.3 216.96L147.174 217.906L149.039 219.66L151.004 221.15L152.001 221.786L154 222.865L156 223.767C156.992 224.173 157.986 224.57 159 224.921C159.989 225.263 160.989 225.571 162 225.84C163.311 226.19 164.644 226.502 166 226.611L168 226.638L170 226.485L172 226.365C173.331 226.308 174.673 226.372 176 226.218L177 226.103L178 225.945C179.011 225.744 180.013 225.529 181 225.225L183 224.518L184 224.081L185 223.586L187 222.39C188.376 221.442 189.704 220.437 190.999 219.381C192.686 218.006 194.331 216.58 195.791 214.961C197.18 213.419 198.345 211.696 199.594 210.044L200.375 209.109C201.389 207.924 202.626 206.894 204.015 206.179C204.957 205.694 205.96 205.406 207 205.228C208.317 205.004 209.669 205.023 211 205.004L216 204.985L217.999 204.906L219.985 204.656L221.91 204.106L223.699 203.142L224.532 202.486L225.316 201.721L226.057 200.867L227.347 198.981L228.272 196.999L228.57 196L228.772 195L228.956 193L228.999 190L229 184L228.975 178L228.849 173L228.95 169L228.999 164L228.961 161C228.917 159.994 228.838 158.999 228.715 158L228.424 156L228.17 154C228.061 153.004 228.039 152 228.015 151L228 148L228 143L228 128L228 117L228.001 113L228.039 110C228.083 108.995 228.156 107.998 228.285 107C228.501 105.336 228.83 103.682 228.871 102C228.896 100.992 228.825 100 228.711 99L228.17 95C228.012 93.3365 228.009 91.6692 228.001 90L228.001 87C228.011 85.3306 228.011 83.6638 228.17 82C228.361 79.9931 228.807 78.0177 228.896 76C228.94 75.0017 228.929 73.9949 228.826 73L228.169 68L227.91 64C227.824 62.9887 227.698 61.9905 227.471 61C227.234 59.9724 226.891 58.9894 226.532 58L225.688 56L225.219 55L224.255 53L223.297 51L221.399 47L219.358 43L217.515 39L216.525 37L215.475 35L214.485 33C213.713 31.3226 212.974 29.6336 212.111 28L210.421 25C209.48 23.3449 208.539 21.691 207.664 20C206.81 18.3484 206.074 16.6343 205.105 15.044C204.509 14.0663 203.731 13.1709 202.856 12.4336L200.981 11.179L199.995 10.7423L198 10.2284L196 10.044L193 10.0008L180 10L135 10L122 10L119 10.0039L118 10.0154L116 10.1049L115 10.2137L113 10.6489z"/>
<path style="fill:#fefefe; stroke:none;" d="M206 181L206 109L206 82L205.999 74C205.989 72.0027 206.044 69.962 205.606 68C205.374 66.9608 205.023 65.975 204.598 65C204.152 63.976 203.607 62.9962 203.104 62L202.109 60C201.158 58.0252 200.289 56.0119 199.421 54L198.111 51L197.111 49L194.861 45C194.125 43.6838 193.445 42.3406 192.755 41L191.738 39.0039L191.204 38.0154L190.034 36.1096L189.363 35.2315L188.613 34.4444L186.934 33.233L185.154 32.5887L184.282 32.4568L183.424 32.4298C182.554 32.4261 181.693 32.5708 180.83 32.6597L177.985 32.9213C176.991 32.9778 175.995 32.9879 175 32.9961L171 33L161 33L153 33L151 33.0008L149.005 33.0193L147.059 33.1481L146.147 33.3179L145.314 33.6034L144.589 34.0278L143.988 34.6034L143.149 36.1481L142.866 37.0579C142.637 38.0213 142.456 38.9777 142.34 39.9614C142.198 41.1624 142.192 42.3686 142.166 43.5756L142.117 45.2855C142.067 46.8577 142.002 48.4264 142.014 50L142.094 52.9105L142.214 54.7145C142.288 55.8657 142.405 57.0141 142.37 58.1698L142.035 64C141.991 65.3325 142.001 66.667 142 68L142 72L142.001 76L142.039 79C142.083 80.0059 142.164 81.0004 142.285 82L142.679 85L142.78 87L142.709 91L142.961 96C142.981 97.003 142.957 97.9982 142.91 99L142.715 101L142.421 103L142.13 105C141.936 106.339 141.798 107.689 141.446 108.999L140.772 110.985L140.312 111.96L139.146 113.811L138.442 114.657L137.66 115.431L135.906 116.721L133.985 117.656L132.996 118.007L131 118.521L129 118.826L127 118.961L124 118.999L112 119L59 119L44 119L42 119.005L40.0039 119.059C38.7036 119.155 37.3653 119.333 36.2284 120.028L35.4336 120.603L34.179 122.148L33.4336 124.019L33.1088 126.001L33.044 127L33.0008 130L33 133L33 166L33 172L33.0193 174.999L33.1481 176.981L33.3179 177.941L34.027 179.663L34.5995 180.338L36.1049 181.079L37.8094 180.824L38.6258 180.338L39.392 179.663L40.7716 177.941L41.4244 176.981C42.1082 175.978 42.7657 174.947 43.5285 174.001L44.3287 173.004L45.1852 172.015L46.0934 171.043L48.0147 169.213L50.0008 167.634L51 166.955C51.9837 166.337 52.9768 165.745 54 165.194C55.6073 164.328 57.2541 163.536 59 162.989C61.2742 162.277 63.6516 162.061 66 161.729C67.3297 161.541 68.6568 161.284 70 161.209C71.008 161.153 71.9983 161.195 73 161.315L75 161.67L77 162.159L79 162.75L80 163.094L81 163.479L83 164.414C84.7861 165.366 86.4117 166.571 87.9992 167.819C89.0108 168.615 89.9922 169.442 90.9606 170.289L91.9097 171.171L93.6991 173.039C94.5429 173.985 95.3093 174.99 96.0764 175.997L97.4954 177.956L98.1782 178.891L98.8758 179.772L99.598 180.566L101.209 181.821L103.043 182.566L104.015 182.772L106.001 182.956L108 182.996L111 183L124 183L128 182.999L131 182.961L133 182.826L133.999 182.695L135.985 182.276C136.97 182.028 137.962 181.613 138.816 181.062C140.776 179.795 142.052 177.828 143.424 175.996C144.413 174.676 145.37 173.331 146.465 172.093C147.281 171.17 148.151 170.315 149.09 169.518L151.015 168.043C151.995 167.362 152.982 166.694 154 166.069C156.2 164.717 158.507 163.506 161 162.789C161.977 162.509 162.988 162.286 164 162.185C165.996 161.987 167.996 162.002 170 162L173 162.004C173.998 162.013 175.005 162.008 176 162.105L177 162.213L179 162.634C180.374 163.018 181.692 163.596 183 164.158C184.718 164.896 186.445 165.649 188 166.699C189.067 167.419 190.046 168.245 190.999 169.108C192.02 170.033 193.004 171.009 193.957 172.004L195.791 174L197.406 175.995L198.861 177.938L199.593 178.837L201.184 180.306L202.883 181.106L203.856 181.207L206 181M59 96L101 96L108 96L111.999 95.9954C112.976 95.9769 113.972 95.9985 114.942 95.8519C115.824 95.7185 116.704 95.5144 117.436 94.9722C118.707 94.031 119.182 92.4505 119.517 90.9807C119.889 89.351 119.944 87.6634 119.985 86L119.999 84L120 80L120 53L119.999 46C119.99 44.0093 120.022 41.9938 119.681 40.0247L119.265 38.1605L118.917 37.159L118.768 36.6713L118 35L116.329 35.4552L114.84 36.081C113.523 36.7234 112.255 37.4565 110.998 38.2083C109.985 38.8147 108.989 39.4451 108 40.0895L106 41.4884L102 44.5224L99 46.6566C97.6559 47.5893 96.2999 48.5033 95.0039 49.5031C93.0668 50.9973 91.2628 52.6474 89.4244 54.2585C87.5995 55.8577 85.7502 57.4269 83.9853 59.0934C81.9773 60.9895 80.0234 62.9522 78.1698 65L74.7153 69L72.0008 72L70.1813 74L69.3279 75L67.7855 77C67.0835 77.9694 66.4457 78.9837 65.8148 80C64.9959 81.3192 64.2025 82.6564 63.4244 84C62.6592 85.3214 61.9147 86.654 61.1937 88L60.6836 88.9985L59.8148 90.9753L59.4985 91.9552L59.1319 93.841L59.0579 94.3287L59 96z"/>
<path style="fill:#020202; stroke:none;" d="M170.004 95.4838L168.044 96.0324L167.109 96.4336L166.228 96.9383L164.742 98.3032L163.742 100.058L163.228 102.005L163.109 103.001L163.044 104C163.002 105.666 162.981 107.333 163.004 109L163.015 110L163.109 111.995L163.434 113.942L164.179 115.697L164.742 116.436C165.853 117.649 167.46 118.167 169.015 118.517L170.004 118.695L171.001 118.826C172.001 118.912 172.995 118.971 174 118.971C175.005 118.971 175.999 118.912 176.999 118.826L177.996 118.695L178.985 118.517L180.891 117.968L181.772 117.566L182.566 117.062L183.821 115.697L184.566 113.942L184.891 111.995L184.956 110.999C184.998 109.333 185.007 107.667 184.999 106C184.991 104.344 185.007 102.688 184.772 101.044L184.566 100.109L183.821 98.4329L183.258 97.7384L181.772 96.7029L180.891 96.3441L178.985 95.8233L176.999 95.4406L175 95.1852L173 95.1296L172 95.189L170.004 95.4838z"/>
<path style="fill:#fefefe; stroke:none;" d="M66.0154 184.746C63.2193 185.808 61.0995 188.263 60.0131 191.004C59.3866 192.584 59.1126 194.32 59.4769 195.999L60.1829 197.985L60.7431 198.956L61.4336 199.891L62.2284 200.772L63.1088 201.566L64.044 202.258L65.0154 202.82L67.0008 203.551C68.6462 203.952 70.3953 203.82 71.9961 203.293C73.0202 202.956 74.0009 202.458 74.8912 201.852C76.0666 201.052 77.1103 200.057 77.821 198.815L78.5656 196.96L78.7677 195.985L78.8758 194.996L78.8758 193.001L78.7677 192.004L78.5656 191.015L78.2577 190.043L77.2577 188.214L75.7716 186.653L74.8912 186.009L72.9846 185.01L70.9992 184.41L70 184.258L69 184.214L68.0008 184.272L66.0154 184.746M167.015 184.707L165.105 185.573L164.214 186.148L163.394 186.804L162.653 187.533L162.009 188.329L161.457 189.185L160.657 191.04L160.258 193.004L160.213 194.001L160.434 195.996L160.707 196.985L161.09 197.956L162.148 199.775L163.533 201.297L164.329 201.91L166.093 202.851L168.015 203.452L170.001 203.721L170.999 203.718L171.996 203.616L173.96 203.103L175.815 202.142L176.671 201.486L177.467 200.721L178.196 199.867L179.424 197.981L179.896 196.995L180.257 195.999L180.487 195L180.548 193.001L180.091 191.015L179.678 190.043L179.141 189.105L178.486 188.214L176.867 186.653L175.945 186.009L173.995 185.01L172 184.41L171 184.258L170 184.213L169.001 184.268L167.015 184.707z"/>
</svg>
