<?xml version="1.0" standalone="yes"?>
<svg xmlns="http://www.w3.org/2000/svg" width="240" height="240">
<path style="fill:#ffffff; stroke:none;" d="M0 0L0 240L240 240L240 0L0 0z"/>
<path style="fill:#020202; stroke:none;" d="M58.6034 41.0278L58.0278 41.6034L57.6034 42.3179L57.3179 43.1481L57.1481 44.0586L57.0193 46.0046L57.0008 48L57 50L57 57L57.0008 61C57.0049 62.3331 56.9984 63.6693 57.0895 65C57.1585 66.0072 57.2882 67.0004 57.4244 68L57.7153 70L57.9252 72L58.1659 75L58.8302 80C58.9569 81.3314 58.9809 82.6638 58.9969 84C59.0129 85.3336 58.9982 86.6685 59.0895 88C59.1585 89.0069 59.2854 90.0009 59.4244 91L59.8302 94C59.9912 95.6636 59.9667 97.3346 60.0887 99C60.1625 100.007 60.2882 101 60.4244 102L60.7145 104L60.9105 106L60.9853 108L61 112L61 121L61.0008 124L61.0394 127C61.1003 128.342 61.2101 129.679 61.4637 131L61.8843 133C62.109 133.998 62.3598 134.992 62.5363 136C62.7107 136.996 62.8391 137.991 62.9097 139C62.9796 139.999 62.9842 140.999 62.9961 142L63 147L63 157L63.0039 161C63.0159 162.334 63.0257 163.674 63.1844 165L63.5139 167L63.7454 168L64.2554 170L64.49 171L64.8596 173L65.1844 175L65.6952 177C66.1729 178.411 66.8812 179.718 67.6304 181C68.4299 182.368 69.3029 183.691 70.1944 185L72.2978 187.985C73.2282 189.255 74.1712 190.529 75.3248 191.61C76.1578 192.39 77.0691 193.05 78.0401 193.647C78.9924 194.233 80.0016 194.717 81.0008 195.215C81.9749 195.699 82.9825 196.146 84 196.532L86 197.211L87 197.471L88 197.671L90 197.907C91.3337 197.981 92.6646 197.993 94 197.999L99 198L123 198L137 198L142 197.996C143.332 197.987 144.679 197.981 146 197.79C148.08 197.49 150.067 196.789 151.999 195.981C153.699 195.27 155.365 194.485 156.83 193.351L158.575 191.786L159.421 190.895L161.126 188.985C162.24 187.703 163.364 186.418 164.305 185C164.939 184.045 165.462 183.04 165.941 182C166.681 180.396 167.25 178.703 167.711 177C168.156 175.354 168.466 173.671 168.8 172C169.132 170.338 169.467 168.678 169.711 167C169.903 165.674 169.952 164.337 169.985 163L169.999 161L170.001 157C170.004 155.667 169.998 154.331 170.09 153C170.182 151.655 170.378 150.33 170.59 149L171.081 146C171.309 144.666 171.508 143.313 171.862 142.005C172.127 141.023 172.432 140.012 172.988 139.148L174.314 137.603L176.059 136.603L178.005 136.148L179.001 136.059C180.334 135.998 181.666 136.003 183 136L194 135.999C195.336 135.992 196.666 135.982 197.999 135.895L199.985 135.606L201.907 134.991L203.671 133.991L205.2 132.606L205.867 131.786L206.467 130.895L207.467 128.985L208.2 126.999L208.468 126L208.815 124C208.94 123.006 208.964 122 208.985 121L209 118L209 84L208.999 75C208.991 73.3284 208.984 71.6645 208.812 70C208.67 68.6326 208.298 67.2858 207.811 66.0039C207.434 65.01 206.979 64.0211 206.431 63.1088C205.907 62.2354 205.312 61.3995 204.526 60.7384L202.87 59.7029L201.946 59.3441L199.995 58.8233C198.358 58.4407 196.676 58.2071 195 58.0895C194.002 58.0195 193 58.0127 192 58.0039L189 58C187 57.9959 184.991 58.0469 183.005 57.7716L182.019 57.5664L181.059 57.2577L179.322 56.2577L178.068 54.7716L177.502 52.956L177.573 50.9961L178.005 49C178.244 48.01 178.534 47.019 178.656 46.0046L178.758 44.0586L178.642 43.1481L178.382 42.3179L177.396 41.0278L176.682 40.6034L175.852 40.3179L174.941 40.1481L172.995 40.0193L168 40L150 40L86 40L67 40C65.3413 40.0007 63.6762 39.9643 62.0193 40.0586L60.1481 40.3179L58.6034 41.0278z"/>
<path style="fill:#ffffff; stroke:none;" d="M86 54.4244L85 54.5756L83 54.8302L81 54.9653L80.0008 55.0046L79.0046 55.0548L78.0193 55.1474L77.0594 55.3179L76.152 55.6034L74.6427 56.6034L74.1173 57.3179L73.6042 59.0586L73.5756 60.0185L73.7593 61.9861L74.0062 63.9105L74.4236 67.4244C74.616 68.9516 74.857 70.4733 74.9066 72.0147C74.9386 73.0089 74.9292 74.0095 74.8264 75L74.1698 80C74.0119 81.6596 73.9827 83.334 74.0154 85C74.0418 86.3408 74.1211 87.6687 74.2855 89L74.831 93L75.169 98L75.8302 103C76.0515 105.325 75.9951 107.667 76.0039 110L76.0394 112C76.0834 113.006 76.162 114.001 76.2855 115L76.7184 118L77.2816 123L77.7145 126C77.838 126.999 77.9166 127.994 77.9606 129C78.0335 130.664 77.9994 132.335 78 134L78 141C78.0027 142.665 77.973 144.338 78.0895 146C78.2552 148.364 78.7141 150.692 79.2346 153L79.9568 156L80.3164 158L80.3912 160L80.2461 162C80.167 162.998 80.0633 163.997 80.0818 165L80.2168 167L80.6343 169C81.0197 170.38 81.6063 171.695 82.1975 172.996L82.6844 173.985L83.2137 174.957L84.4985 176.787L86.1327 178.363L87.0548 179.034L89.0046 180.2C89.9762 180.737 90.9844 181.201 92 181.647L94 182.363L96 182.787C97.3181 182.988 98.6702 182.987 100 182.996L105 183L123 183L130 183C132.335 182.996 134.683 183.04 137 182.699C138.015 182.55 139.005 182.321 140 182.076L141 181.79L143 181.12C144.373 180.597 145.733 180.005 146.956 179.181C148.256 178.306 149.378 177.234 150.272 175.945C151.508 174.165 152.076 172.067 152.621 170C153.058 168.345 153.429 166.673 153.789 165L154.385 162C154.561 161.006 154.745 160.007 154.829 159L154.961 157L155 153L155 147L155.015 144L155.09 142L155.285 140L155.83 136C155.926 135.001 155.96 134.003 155.989 133C156.019 132 156.015 130.998 156.09 130C156.191 128.649 156.387 127.325 156.665 126C157.013 124.34 157.469 122.696 157.614 121C157.758 119.33 157.547 117.67 157.567 116C157.583 114.66 157.731 113.334 157.845 112L157.961 110C158.04 108.001 157.944 105.996 158.09 104C158.189 102.65 158.385 101.324 158.665 100C159.087 98.0087 159.638 96.038 159.791 94C159.891 92.6638 159.797 91.3344 159.727 90L159.445 85L159.16 82C159.096 80.9982 159.055 80.0038 159.105 79C159.155 77.9905 159.29 76.9948 159.464 76C159.64 74.9916 159.889 73.9942 160.13 73C160.773 70.3546 161.541 67.7155 161.826 65C162 63.3481 162.026 61.6716 161.851 60.0193C161.752 59.086 161.486 58.099 160.972 57.3032L160.397 56.564L159.682 55.9383L158.852 55.4336L157.941 55.0324L155.995 54.483C153.707 53.9738 151.329 54.012 149 54.0008L142 54L107 54L96 54C93.6669 54.0002 91.3306 53.9634 89 54.0895C87.9927 54.144 86.9988 54.2932 86 54.4244M173 120L182 120L186 119.999L187.995 119.981L189.941 119.852C190.802 119.721 191.695 119.528 192.397 118.972L192.972 118.397L193.397 117.682L193.852 115.941C194.004 114.632 193.994 113.316 193.999 112L194 109L194 85L193.995 82C193.983 81.0024 193.963 80.0119 193.852 79.0193C193.712 77.7772 193.299 76.5063 192.397 75.6034L190.852 74.6034L189.941 74.3179L188.981 74.1481L186.999 74.0193L186 74.0046L184.001 74.0046C183.015 74.0224 182.039 74.0344 181.059 74.1481C180.198 74.248 179.29 74.4945 178.589 75.0278C177.332 75.9834 176.973 77.5915 176.545 79.0193L176.274 80.0046L175.514 83L175.325 84C175.142 84.9885 175.089 85.9983 175.04 87L175.004 89L175 92L174.999 101C174.989 103.006 174.997 105.013 174.675 107C174.456 108.355 174.06 109.666 173.745 111C173.511 111.993 173.308 112.981 173.184 113.995C172.942 115.982 173.006 118.003 173 120z"/>
</svg>
