<?xml version="1.0" standalone="yes"?>
<svg xmlns="http://www.w3.org/2000/svg" width="240" height="240">
<path style="fill:#fefefe; stroke:none;" d="M0 0L0 240L240 240L240 0L0 0z"/>
<path style="fill:#020202; stroke:none;" d="M149 101L149.199 99.3287L149.529 97.8395L150.09 95.9753L151.431 92C151.835 90.693 152.129 89.3438 152.381 88C152.568 87.0049 152.724 86.0067 152.833 85L153.166 81L153.83 76C153.987 74.3415 154.025 72.6646 153.96 71C153.921 69.9946 153.838 68.9985 153.715 68L153.155 64C152.995 62.6689 152.928 61.323 152.704 60L152.536 59C152.264 57.6533 151.953 56.3174 151.56 55C151.258 53.9845 150.908 52.9915 150.535 52L149.676 50L149.191 49C148.671 47.9874 148.137 46.9874 147.571 46C146.79 44.6387 145.963 43.3079 145.096 42L143.621 40L142.79 39C141.879 37.9762 140.946 36.9807 139.985 36.0039C138.103 34.0912 136.166 32.2055 134 30.6127C131.529 28.7952 128.753 27.4276 126 26.098C124.686 25.4635 123.371 24.8155 122 24.311C120.353 23.7047 118.675 23.1858 117 22.6605C116.003 22.3479 115.01 22.0142 114 21.7454L112 21.2361L109 20.6157C108.007 20.4266 107.006 20.2711 106 20.1705C104.008 19.9712 102 20.0024 100 20L97 20.0039C95.3259 20.0298 93.6601 20.0563 92 20.3009C90.9854 20.4505 89.9948 20.6791 89 20.9244L87 21.5193C85.9871 21.8328 84.9961 22.2254 84 22.5872L82 23.3202C80.3159 23.9471 78.6249 24.5535 77 25.3264C75.6205 25.9825 74.2889 26.7249 73 27.5448C71.9787 28.1944 70.9903 28.8959 70 29.591C68.6493 30.5392 67.2945 31.4902 66 32.5147C64.6123 33.6129 63.2915 34.7886 62.0401 36.0401C61.0962 36.9841 60.1669 37.9632 59.3256 39.0008L58.5177 40L57.0432 42L55.6991 44C54.866 45.3119 54.0562 46.6348 53.3125 48C52.2578 49.936 51.3033 51.9289 50.544 54L49.5718 56.9992L48.8673 58.9853L47.9113 60.9066L47.2971 61.8156L46.581 62.6744L44.892 64.2392L42.9846 65.6366L41.9961 66.2855C41.018 66.8731 40.0539 67.4671 39 67.9144L37 68.581L36 68.7755L34 68.956L30 69.0394L28 69.1736L26 69.4676L24 69.9275C22.6399 70.3223 21.2918 70.7544 20.0046 71.3526L18.0586 72.3665L17.1481 72.9699L15.6034 74.3904L14.6073 76.1049L14.3333 77.0432L14.1921 78.0147L14.1674 79L14.2477 79.9861L14.7431 81.9105L15.7423 83.7106L16.4336 84.5602L18.1088 86.1806C19.6003 87.4946 21.2554 88.64 23 89.5903C23.9649 90.1159 24.981 90.571 26 90.9807C26.9933 91.3801 27.9894 91.7569 29 92.1103L31 92.7114L36 93.8951C38.3431 94.4837 40.647 95.2142 43 95.7647L47 96.6196C48.0096 96.8562 49.044 97.0902 49.9961 97.5139L51.956 98.5887L52.892 99.314L53.7747 100.147L55.2824 102.019L56.3372 104.001L56.892 106L56.9877 107L56.8256 109L56.2307 111L55.7963 112L55.287 113L54.716 114L53.3866 116C52.3499 117.418 51.1778 118.725 49.9568 119.985C48.4009 121.591 46.7462 123.091 45 124.486L43 125.996L40 128.235C37.9469 129.816 35.9408 131.454 34 133.171C32.6254 134.386 31.3148 135.685 30.0394 137.004C29.0955 137.98 28.1876 138.983 27.2894 140L25.6196 142C24.569 143.277 23.5436 144.6 22.6597 146L21.5255 148L20.1435 151L18.7701 154C18.3196 154.994 17.8503 155.982 17.4529 157L16.6983 159C16.2416 160.324 15.8201 161.655 15.4282 163C15.0456 164.313 14.7068 165.654 14.4645 167C14.2861 167.992 14.1469 168.993 14.0903 170C13.9404 172.665 14.0651 175.335 13.9144 178C13.82 179.668 13.571 181.327 13.571 183C13.571 184.339 13.7316 185.668 13.8449 187L13.9622 189C14.0206 190.333 13.9913 191.669 14.0934 193C14.1709 194.012 14.3071 195.007 14.5177 196C14.878 197.699 15.4494 199.357 16.0039 201C16.5738 202.689 17.1597 204.377 17.9005 206C18.8501 208.081 20.0085 210.074 21.24 212C21.8937 213.022 22.5816 214.014 23.2894 214.999L24.8187 216.985C25.5931 217.969 26.4164 218.929 27.2894 219.826L29.0895 221.536L31.0147 223.116L32.0039 223.883L35 226.257L37 227.877L39 229.377L40 230.038C41.2833 230.86 42.6402 231.556 44 232.24C45.3187 232.904 46.6489 233.543 48 234.138C48.9904 234.574 49.9891 234.994 51 235.381C52.306 235.881 53.6257 236.346 55 236.621C56.9758 237.016 58.995 236.989 61 236.999L69 237L93 237L102 237C103.665 237.001 105.336 236.967 107 237.039C108.006 237.083 109 237.167 110 237.282C111.333 237.434 112.654 237.66 114 237.66C115.01 237.66 116 237.528 117 237.41C118.001 237.291 118.994 237.157 120 237.09C121.331 237 122.667 237.005 124 237.001L128 237L132 237.001C133.333 237.005 134.669 236.998 136 237.09L138 237.285L141 237.715C141.998 237.844 142.995 237.917 144 237.961L147 237.999L150 238L154 237.999L157 237.965L159 237.87C159.999 237.808 160.999 237.724 162 237.71L164 237.745C165.333 237.811 166.664 237.924 168 237.875C169.683 237.813 171.338 237.515 173 237.27C174.675 237.023 176.371 236.848 178 236.367C179.033 236.061 180.019 235.645 181 235.204L184 233.752C186.03 232.74 188.062 231.716 190 230.536C191.723 229.487 193.359 228.311 195 227.14C197.388 225.436 199.796 223.756 202 221.816C203.381 220.6 204.693 219.304 205.985 217.996C207.264 216.702 208.515 215.382 209.7 214C211.079 212.391 212.354 210.695 213.625 209C214.854 207.362 216.089 205.721 217.201 204C218.037 202.705 218.808 201.365 219.525 200L221.044 197L221.914 195C222.454 193.684 222.924 192.336 223.413 191C223.898 189.674 224.382 188.351 224.795 187C225.199 185.679 225.534 184.339 225.873 183L226.87 179L227.576 176C227.934 174.338 228.267 172.672 228.576 171L229.08 168L229.41 166C229.567 165.003 229.739 164.007 229.826 163C229.913 162.001 229.946 161.002 229.91 160C229.852 158.331 229.688 156.671 229.71 155C229.723 153.998 229.808 152.999 229.87 152L229.965 150L229.999 147L230 143L229.996 140C229.987 139 229.983 137.998 229.91 137C229.836 135.994 229.727 134.991 229.536 134L228.883 131L228.261 128L227.754 125L227.272 122C227.023 120.331 226.866 118.644 226.475 117C226.067 115.282 225.422 113.651 224.81 112L223.742 109C223.187 107.331 222.723 105.637 222.074 104C221.532 102.634 220.887 101.318 220.24 100L219.218 98C217.942 95.591 216.553 93.2281 214.958 91.0147L213.497 89.0941L212.714 88.1883L211.076 86.554C210.288 85.8361 209.44 85.2107 208.572 84.5949L206.83 83.5293L204.961 82.5988L203 81.8835L201.044 81.5679L200.11 81.6219L199.232 81.8364L198.448 82.2191L197.272 83.4375L196.758 85.1088C196.636 86.0772 196.859 87.0613 197.044 88.0039L197.49 90L197.812 92C198.02 93.9952 197.951 96.0726 197.347 97.9992L196.543 99.9846L195.991 100.957L195.347 101.895L193.786 103.606L192.895 104.347L190.985 105.543C189.737 106.186 188.385 106.58 187 106.786C185.684 106.982 184.328 106.999 183 106.957C181.656 106.914 180.324 106.775 179 106.536C177.991 106.355 176.996 106.108 176 105.87C173.988 105.388 171.99 104.855 170 104.29C168.008 103.725 166.028 103.098 164 102.669C162.68 102.389 161.349 102.169 160 102.09L155.005 101.91L153.045 101.714C151.689 101.512 150.347 101.25 149 101z"/>
<path style="fill:#fefefe; stroke:none;" d="M203 124L201.329 124.66L200.841 124.9L199.84 125.346L196.995 126.691C195.701 127.272 194.388 127.82 193.039 128.262C192.134 128.559 191.219 128.805 190.285 128.993C189.145 129.223 187.983 129.352 186.83 129.501C185.884 129.623 184.938 129.763 183.985 129.837C182.655 129.941 181.33 129.943 180 129.826C178.658 129.707 177.318 129.465 176 129.192C174.996 128.984 173.994 128.775 173 128.522C171.99 128.264 170.995 127.963 170 127.653L167 126.671L165 126.04L163 125.518C161.688 125.209 160.342 125.105 159 125.04C157.67 124.975 156.332 125.001 155 125L148 125L144 125.004C142.325 125.031 140.657 125.049 139 125.326C137.29 125.611 135.646 126.144 134 126.671L129 128.279L127 128.829L125 129.238L123 129.37L122 129.293L121 129.106L120.001 128.812L118.015 127.907L116.109 126.581L114.431 124.893L113.731 123.96L113.154 122.999L112.692 122.035L112.117 120.17L111.937 118.424L111.985 117.576L112.353 115.83L113.14 113.961L113.692 112.985L114.341 111.996L115.819 110L119.764 105C121.007 103.371 122.181 101.699 123.326 100C124.202 98.7003 125.065 97.3768 125.816 96L126.816 94L127.627 92C128.216 90.3407 128.784 88.6742 129.33 87C129.87 85.3443 130.403 83.6854 130.844 82C131.275 80.3532 131.644 78.6948 131.826 77C131.969 75.6758 132.005 74.3311 131.992 73C131.976 71.3262 131.951 69.6556 131.674 68C131.389 66.2937 130.879 64.6272 130.3 63C129.938 61.9821 129.531 60.9898 129.099 60L128.623 59L127.521 57L126.211 55.0039L125.471 54.0154L123.815 52.1049C122.939 51.2023 121.998 50.38 120.985 49.6343C120.032 48.9322 119.011 48.3462 118 47.7353L116 46.5941L115 46.0401C113.708 45.3589 112.399 44.6869 111 44.2485L110 43.9383L108 43.4537L105 42.9205L103 42.5941L101 42.3256L100 42.2593L98 42.3287L97 42.4537L95 42.8094L93 43.2539L91 43.8642L89 44.7639L88 45.3295C86.98 45.9618 85.9835 46.6216 85 47.3094C83.2927 48.5036 81.6197 49.7476 80.0934 51.1698C78.3817 52.7647 76.8438 54.5559 75.439 56.4244C74.7879 57.2905 74.1764 58.1855 73.5795 59.0895C72.735 60.3684 71.9266 61.6702 71.1659 63.0008C70.2142 64.6653 69.4091 66.4202 68.3125 67.9992L66.7801 69.9853L64.9992 71.9105L62.3943 74.5756L61.6566 75.4244L60.5008 77.169L60.1181 78.0849L59.8812 79.0208L59.956 80.8704L60.284 81.723L61.4491 83.1566L62.2323 83.7222L63.1096 84.2006L65.0154 84.9954L67.0008 85.7454L68 86.1489L68.9992 86.5841L69.9961 87.0548L70.9846 87.5679L71.9568 88.1335L73.7863 89.4738L75.3511 91.1296L76.0054 92.054L77.0802 94.0046C77.9874 95.8891 78.556 97.9283 78.8148 100C78.939 100.994 78.9639 102 78.9853 103L79 106L78.9961 109C78.9702 110.674 78.9442 112.34 78.6991 114C78.4479 115.7 78.0232 117.379 77.4522 119C76.8455 120.722 76.051 122.367 75.24 124C74.0429 126.41 72.783 128.809 71.2114 131C69.6884 133.123 67.9282 135.068 65.9853 136.815C65.0369 137.667 64.0422 138.479 63 139.215C61.0243 140.61 58.9514 141.859 57 143.289C54.9198 144.814 52.9322 146.463 51 148.171C49.9681 149.082 48.9891 150.053 48.0039 151.015L46.0432 153.001L44.213 155C43.4012 155.957 42.6478 156.946 41.966 158C41.1385 159.28 40.4433 160.639 39.7608 162C39.2641 162.99 38.7899 163.989 38.3372 165L37.5478 167L37.2207 168L36.9275 169L36.4676 171C36.1531 172.654 36.0552 174.324 35.9398 176C35.8482 177.331 35.731 178.666 35.7099 180C35.6887 181.338 35.7954 182.665 35.8704 184C36.0018 186.338 36.0306 188.692 36.4676 191C36.859 193.067 37.4902 195.102 38.4028 197L39.4823 198.999L40.1088 199.996L40.7894 200.985L41.5293 201.961L42.3287 202.91L43.1852 203.826L44.0934 204.7L46.0147 206.334L48.0008 207.869L49 208.621C50.6207 209.808 52.2345 210.998 54 211.965C55.5899 212.835 57.2831 213.533 59 214.11C60.3112 214.55 61.6473 214.895 63 215.181C64.3212 215.461 65.6557 215.695 67 215.829C68.6618 215.996 70.332 215.991 72 215.999L77 216L95 216L144 216L157 216L161 215.996C162.334 215.984 163.672 215.971 165 215.826C167.047 215.604 169.055 215.127 171 214.455C172.018 214.103 173.015 213.689 174 213.254C175.372 212.648 176.726 211.996 178 211.2C179.763 210.099 181.351 208.753 183 207.495C184.323 206.487 185.691 205.533 186.985 204.487C187.975 203.687 188.916 202.846 189.815 201.946L191.471 200.155L192.907 198.424C193.56 197.574 194.195 196.718 194.796 195.83C195.86 194.258 196.82 192.618 197.81 190.999C198.825 189.34 199.869 187.698 200.819 186C201.36 185.033 201.817 184.023 202.24 183C202.779 181.696 203.228 180.345 203.655 179C204.181 177.346 204.69 175.687 205.102 174L205.55 172L206.079 169C206.306 167.67 206.544 166.338 206.715 165L206.925 163L207.166 160C207.381 157.994 207.773 156.015 207.91 154C207.979 153.003 207.995 151.999 207.995 151L207.961 148L207.83 146C207.748 144.993 207.556 144 207.424 143C207.293 142.001 207.146 141.007 207.09 140L207.011 138C206.986 137 206.985 135.998 206.91 135C206.757 132.978 206.428 130.946 205.76 129.025L205.015 127.16L204.454 126.159L204.204 125.671L203 124z"/>
<path style="fill:#020202; stroke:none;" d="M90.0039 63.7431C88.579 64.288 87.3055 65.1513 86.2284 66.2284C85.1515 67.3053 84.2875 68.5791 83.7431 70.0039L83.2438 72L83.152 73L83.1489 74L83.3981 76L84.0093 77.9954L85.0093 79.9414L85.6528 80.8519L87.2137 82.3966L89.0432 83.3966L91.0039 83.8519L92.0008 83.9406C93.0027 83.9818 93.9976 83.9864 95 83.9552L96.9992 83.7716L97.9954 83.5664L98.9815 83.2577L100.867 82.2577L101.721 81.5664L103.142 79.8912L104.106 77.9846L104.641 75.9992L104.771 75L104.812 74L104.775 73L104.463 71.0039C104.079 69.3612 103.426 67.6996 102.297 66.419L100.775 65.0895L99.892 64.5725L97.9846 63.804L95.9992 63.3333L94 63.1373L93 63.1489L92 63.2431L90.0039 63.7431M169.941 163.846L167.995 164.537L165 166.034C162.727 167.127 160.387 168.103 158 168.921C154.428 170.146 150.71 170.904 147 171.576L142 172.449L138 173.339L137 173.551L133 174.246C131.668 174.464 130.341 174.678 129 174.83L127 174.96C125.331 175.025 123.664 174.966 122 174.83C120.659 174.721 119.331 174.46 118 174.271L115 173.87L113 173.579C111.339 173.342 109.685 173.059 108 173.083L106 173.218L105.001 173.395L104.004 173.653L103.015 174.009L102.043 174.457L100.214 175.653L98.6528 177.214L98.0093 178.105L97.4576 179.043L97.0131 180.015L96.6674 181.004L96.3079 183L96.3866 185L96.5841 185.999L96.8827 186.996L97.2793 187.985L98.3441 189.906L99.7091 191.657L101.304 193.121L102.174 193.721L104.039 194.656C105.616 195.309 107.315 195.62 109 195.829L112 196.075L114 196.285C115.335 196.449 116.659 196.721 118 196.83L120 196.961L123 196.995L125 196.961L127 196.83C128.339 196.679 129.667 196.468 131 196.271L133 196L135 195.728L138 195.245C139.338 195.024 140.69 194.818 142 194.461C144.078 193.893 146.028 192.979 148 192.13C149.69 191.402 151.388 190.707 153 189.816C154.383 189.051 155.702 188.175 157 187.275C158.014 186.572 159.017 185.848 160 185.101C161.02 184.325 162.014 183.524 162.996 182.7L163.985 181.826L165.907 179.961L166.815 178.985L168.471 176.999C169.216 176.037 169.879 175.026 170.532 174L171.672 172L172.174 171L173.012 169.005L173.303 168.019L173.469 166.152L173.292 165.333L172.929 164.647L171.678 163.828L169.941 163.846z"/>
</svg>
