<?xml version="1.0" standalone="yes"?>
<svg xmlns="http://www.w3.org/2000/svg" width="240" height="240">
<path style="fill:#ffffff; stroke:none;" d="M0 0L0 240L240 240L240 0L0 0z"/>
<path style="fill:#0b0b0a; stroke:none;" d="M118 61.4244L117 61.5756C116.002 61.7116 115.007 61.8509 114 61.9113L110 62.0748C108.664 62.1447 107.332 62.2649 106 62.3804L103 62.6605C101.989 62.7877 100.994 62.9653 100 63.1906C98.652 63.4962 97.3248 63.9025 96 64.294C94.6632 64.689 93.3228 65.0747 92 65.5154L89 66.5872C87.324 67.1988 85.6308 67.7865 84 68.5131C81.9591 69.4224 80.0396 70.5749 78 71.4869L73 73.5023C71.3026 74.2407 69.651 75.0874 68 75.9228C65.9585 76.9559 63.9279 78.0091 62 79.2461C60.9753 79.9036 59.9768 80.593 59.0147 81.3395C58.0302 82.1033 57.0921 82.92 56.1698 83.7569L51.8302 87.9198L47.9969 91.2863C46.9871 92.179 45.9918 93.0849 45.0394 94.0394C43.7803 95.3011 42.6077 96.631 41.4676 98L39.9244 100C39.1934 100.968 38.5282 101.987 37.8619 103L35.3202 107C34.285 108.646 33.2391 110.283 32.3233 112C31.455 113.628 30.7287 115.318 29.9761 117L29.0748 119L28.6227 120L27.8434 122L27.4583 124C27.3413 125.709 27.8394 127.395 28.3634 129C28.8102 130.369 29.3556 131.702 29.9776 133C30.4651 134.017 31.012 135.004 31.5401 136C32.4328 137.684 33.3104 139.377 34.311 141C35.3631 142.707 36.5329 144.341 37.6566 146C39.2044 148.286 40.6734 150.65 42.5177 152.715C43.9101 154.273 45.4972 155.653 47.0147 157.086C48.3392 158.336 49.6333 159.625 51 160.83L53 162.561L56 164.985C56.9793 165.759 57.977 166.513 59 167.229C61.5535 169.017 64.2905 170.516 66.9105 172.2L71.2855 175.138C72.1748 175.716 73.0993 176.24 74.0394 176.73C75.3265 177.401 76.6545 178.003 78 178.547C79.3173 179.08 80.6644 179.528 82 180.011L85 181.13C85.9968 181.516 86.9831 181.933 88 182.265L90 182.841L93 183.59C94.9552 184.147 96.8428 184.91 98.8302 185.356C99.9704 185.612 101.128 185.738 102.285 185.883C103.533 186.04 104.775 186.212 106.015 186.428C109.007 186.95 111.961 187.702 115 187.91C117 188.047 119.003 187.98 121 187.844L123 187.65L125 187.481L128 187.329L132 187.071C133.671 186.975 135.341 186.939 137 186.7C138.688 186.457 140.338 186.024 142 185.65L148 184.35L152 183.445C153.335 183.166 154.682 182.939 156 182.58C157.7 182.118 159.347 181.482 161 180.88C163.698 179.898 166.403 178.91 169 177.68C172.116 176.203 175.025 174.354 177.996 172.614L180.91 170.941C181.806 170.432 182.705 169.932 183.576 169.381C184.46 168.822 185.313 168.219 186.166 167.613L188 166.237C188.944 165.481 189.844 164.694 190.715 163.855L193.282 161.271C194.761 159.816 196.304 158.432 197.718 156.91C198.887 155.651 199.978 154.318 201.079 152.999C202.183 151.679 203.277 150.354 204.338 149C205.368 147.685 206.373 146.348 207.36 145C208.318 143.691 209.254 142.37 210.124 141C211.744 138.45 213.159 135.77 214.364 133L215.191 131L215.579 130L216.257 128L216.5 127L216.686 125L216.452 123L216.206 122L215.891 121L215.522 120L214.64 118L213.166 115L212.27 113C211.831 111.99 211.418 110.969 210.891 110L209.676 108L207.59 105L205.053 101L203.65 99.0039C202.641 97.6668 201.535 96.4114 200.409 95.1736L199.572 94.3002L198.714 93.4637C197.549 92.3319 196.238 91.3627 194.985 90.3349L192.999 88.6998L191 86.9136C189.667 85.679 188.38 84.3916 187 83.2091C186.039 82.3855 185.04 81.6253 184 80.9043L182 79.6188L180 78.4282L178 77.3086L176 76.2585L169 72.7531L163 69.7569C162.008 69.268 161.016 68.7744 160 68.3364L158 67.5332L155 66.5069L153 65.8364C151.342 65.2932 149.676 64.7827 148 64.2978C147.009 64.0112 146.011 63.722 145 63.5147C144.008 63.3112 143.011 63.1601 142 63.0926L138 62.9105L136 62.6998C133.641 62.3628 131.359 61.6363 129 61.3002C127.675 61.1113 126.338 61.0277 125 61.0154C123.667 61.0032 122.331 61.0007 121 61.0895C119.992 61.1568 119 61.293 118 61.4244z"/>
<path style="fill:#ffffff; stroke:none;" d="M115 80.5432C113.977 80.7494 112.981 81.0905 112 81.4398L109 82.6042C107.657 83.146 106.31 83.6921 105 84.3094C103.651 84.9451 102.31 85.5984 101 86.3125C99.9828 86.867 98.9836 87.4536 98 88.0656C95.2339 89.7867 92.5185 91.6571 90.3287 94.0934C88.7066 95.898 87.4661 97.9807 86.1397 100L84.1304 103C83.4662 103.988 82.7965 104.97 82.1975 106C81.2626 107.607 80.4882 109.297 79.7461 111C79.1826 112.293 78.684 113.617 78.3897 115C78.1096 116.316 78.0395 117.659 78.0193 119C77.9992 120.334 78.0438 121.671 78.1698 123C78.3285 124.675 78.6682 126.326 78.8302 128C79.0234 129.996 78.9824 132.004 79.1852 134C79.3239 135.366 79.674 136.701 80.1042 138L80.8657 140L81.7353 142L82.1929 143L83.1991 145L84.409 147C85.0947 148.038 85.8556 149.028 86.6304 150C87.4468 151.025 88.2927 152.027 89.1705 152.999C91.27 155.325 93.5195 157.551 96 159.471C97.881 160.927 99.9218 162.182 102 163.334C102.984 163.88 103.982 164.399 105 164.88C105.986 165.345 106.99 165.764 108 166.174C108.977 166.571 109.983 166.933 111 167.215C111.981 167.486 112.986 167.714 114 167.815L116 167.96L119 167.999L122 168L126 167.996C127.001 167.98 128.001 167.982 129 167.907C130.011 167.83 131.008 167.694 132 167.482C133.364 167.191 134.686 166.748 136 166.289L137 165.907L138 165.485L139 165.019L140 164.511L143 162.843L146 161.085L147 160.455L148.999 159.073C150.355 158.051 151.683 157.003 152.91 155.826C154.463 154.338 155.853 152.688 157.181 150.999C158.431 149.409 159.621 147.781 160.59 146C161.118 145.031 161.555 144.015 161.985 143L163.189 140C163.701 138.677 164.203 137.35 164.641 136C164.961 135.013 165.266 134.016 165.482 133C165.694 132.008 165.83 131.011 165.907 130C165.982 129.001 165.98 128.001 165.996 127L166 123L165.996 120C165.98 119 165.983 117.999 165.907 117C165.829 115.988 165.696 114.99 165.471 114C165.163 112.635 164.701 111.294 164.174 110C163.477 108.291 162.733 106.609 161.826 105C160.632 102.883 159.221 100.904 157.714 99.0008C156.917 97.994 156.087 97.0089 155.245 96.0394C154.159 94.7887 153.044 93.5682 151.83 92.4398C149.721 90.4797 147.38 88.7903 145 87.179L142 85.2207L140 84.0957C138.09 83.1539 136.027 82.6024 134 81.9769C132.681 81.5699 131.361 81.0989 130 80.8495L129 80.6875L127 80.6049L125 80.7153L123 80.7446C121.993 80.707 120.999 80.5555 120 80.4352L118 80.2631C116.994 80.2163 115.984 80.345 115 80.5432M77 162L76.5741 160.329L76.3835 159.841L76.0247 158.84L75.1752 156.975C74.1748 154.919 72.959 152.976 71.814 151C71.0592 149.697 70.3274 148.382 69.7245 147C69.0188 145.382 68.508 143.689 68.0039 142C67.6079 140.674 67.2392 139.341 66.8981 138L66.4498 136C66.1673 134.678 65.9719 133.334 65.7539 132C65.5364 130.67 65.3054 129.341 65.1667 128C65.0293 126.671 64.9764 125.335 64.9275 124C64.8909 123.004 64.8625 121.995 64.9421 121C65.0237 119.981 65.1991 118.994 65.4336 118L66.4869 114C66.9252 112.011 67.0766 109.97 67.6057 108C67.8797 106.98 68.2402 105.985 68.6196 105C69.0096 103.987 69.4293 102.983 69.8897 102C70.3675 100.98 70.8833 99.9798 71.439 99C72.5714 97.0036 73.8048 95.0612 74.8657 93.0247L75.7894 91.1605L76.2068 90.159L76.4244 89.6713L77 88L74.841 88.2755L73.8395 88.5147L71.9753 89.314L69.9985 90.5332L69 91.2539C67.6644 92.2646 66.3418 93.2962 65.0394 94.3495C64.1065 95.1039 63.1794 95.8607 62.2855 96.6613C61.113 97.7113 60.0008 98.826 58.8704 99.9205C57.7345 101.02 56.5789 102.101 55.5139 103.272C54.5087 104.376 53.5939 105.557 52.6705 106.729C51.7724 107.87 50.8622 109.002 50 110.17C49.3117 111.102 48.652 112.054 48.0031 113.015L46.054 116C45.4325 116.986 44.8046 117.976 44.2469 119L43.2284 121L42.8333 122L42.5424 123L42.3465 125C42.3999 126.783 43.1178 128.439 43.9159 130C44.444 131.033 45.0722 132.017 45.6852 133L47.5872 136L49.5193 139L50.9244 141C51.9542 142.365 53.0064 143.708 54.1736 144.961L56.0394 146.83L57.0147 147.715L59.0008 149.421L63.9853 153.729L65.9105 155.421L67.7145 157.112C68.8153 158.157 69.8702 159.253 71.1651 160.066L72.9946 160.968L73.8542 161.271L75.3295 161.668L77 162M169 89L169.241 90.6713L169.7 92.1605L170.532 94.0247L171.615 96.0015C172.548 97.6432 173.526 99.261 174.272 101C175.24 103.254 175.754 105.651 176.427 108L177.655 112C177.958 112.992 178.267 113.984 178.482 115L178.816 117L178.96 119L179.003 124L179.079 128L179.112 129L179.112 131L178.945 133C178.821 134.007 178.612 135.007 178.406 136C178.126 137.346 177.805 138.677 177.431 140C177.046 141.356 176.525 142.676 176.046 144C175.562 145.338 175.092 146.689 174.536 148L173.627 150L172.575 152L170.944 154.995C169.911 156.971 168.961 158.989 168 161L169.671 160.57L171.16 159.985L173.025 159.005L175.002 157.695L176 156.957L180 153.8C181.681 152.456 183.377 151.125 185 149.711C186.71 148.22 188.36 146.658 189.907 144.996C190.804 144.032 191.679 143.042 192.485 142C193.745 140.371 194.941 138.692 196.115 137L198.136 134L199.384 132L200.556 130C201.395 128.447 202.281 126.803 202.382 125L202.196 123L201.882 122L200.938 120L199.767 118L198.481 116L196.36 113L193.373 109.015C192.397 107.741 191.41 106.478 190.334 105.285C188.652 103.42 186.782 101.732 185 99.9645L182.17 97.1034C181.061 95.9869 179.954 94.8783 178.715 93.9043C177.843 93.2197 176.916 92.5839 175.962 92.0193L174.021 90.9059L172.16 90L170.671 89.429L169 89z"/>
<path style="fill:#0b0b0a; stroke:none;" d="M115 97.6451C113.966 97.9182 112.986 98.3412 112 98.7461L110 99.6443L108.004 100.63L107.015 101.174L105.09 102.387L104.174 103.055L103.304 103.764L101.708 105.326C99.9642 107.278 98.7907 109.621 97.7454 112C97.3122 112.986 96.8979 113.982 96.5448 115C96.0922 116.304 95.7235 117.643 95.4676 119C95.2804 119.993 95.1608 120.993 95.0903 122C95.0204 122.999 95.0164 123.999 95.0077 125C94.9962 126.328 95.0206 127.683 95.2099 129L95.6088 131C95.995 132.353 96.4679 133.672 96.9298 135C97.3955 136.339 97.8016 137.719 98.4182 139L98.9344 140L100.303 141.999L102.058 143.981L103.019 144.945L105.001 146.725L106 147.501L108 148.772L110 149.713L111 150.08L113 150.62C114.316 150.891 115.66 150.96 117 150.985C118.666 151.015 120.335 150.967 122 151.039C123.006 151.083 124 151.168 125 151.282C125.999 151.395 126.994 151.576 128 151.62L129 151.642L131 151.404C132.769 151.026 134.438 150.204 135.999 149.316L137.985 148.084L138.961 147.387L139.91 146.62L141.699 144.896L143.319 142.985L144.073 141.996C144.995 140.702 145.878 139.39 146.651 138C147.192 137.027 147.681 136.023 148.12 135C148.67 133.715 149.175 132.38 149.431 131C149.615 130.009 149.69 129.007 149.621 128C149.507 126.328 149.176 124.678 149.128 123L149.169 121C149.236 120 149.346 119.003 149.351 118C149.356 116.968 149.165 115.974 148.836 115C148.479 113.946 147.92 112.958 147.363 112C146.765 110.973 146.112 109.973 145.43 109.001C144.719 107.988 143.972 106.996 143.181 106.043C142.163 104.815 141.084 103.632 139.829 102.638C138.944 101.937 137.98 101.355 136.985 100.825C135.703 100.142 134.357 99.581 133 99.0656C130.745 98.2091 128.41 97.455 126 97.2091C125.001 97.1072 124.002 97.1279 123 97.1304L121 97.1559L118 97.1852L117 97.2631L115 97.6451z"/>
</svg>
