<?xml version="1.0" standalone="yes"?>
<svg xmlns="http://www.w3.org/2000/svg" width="240" height="240">
<path style="fill:#fefefe; stroke:none;" d="M0 0L0 240L240 240L240 0L0 0z"/>
<path style="fill:#020202; stroke:none;" d="M193 66C190.962 64.6077 188.894 63.2531 186.995 61.6698C184.186 59.3272 181.71 56.6211 179 54.1698L175 50.7145C173.978 49.8188 172.982 48.8997 172 47.9606L169 44.9992L165 41.0039L162 38.0895C161.02 37.1769 160.015 36.2977 159 35.4244L156 32.8302C152.934 30.0566 150.151 26.9813 147 24.3009C146.029 23.4748 145.026 22.6987 144 21.9429L142 20.6528C141.062 20.1373 140.055 19.6544 139 19.4298L137 19.1088C135.999 19.0394 135.003 19.0179 134 19.0039L129 19L109 19L105 19L103 19.0046C101.328 19.0333 99.6181 19.0281 98 19.5139L96 20.3179L95 20.8935L93 22.3403L92 23.1744L89 25.8449C87.0037 27.5983 84.946 29.2792 83 31.0895C81.6438 32.3511 80.3399 33.6677 79.0147 34.9614L76.1698 37.6998L73.5756 40.1157L68.9853 44.1736L66.9992 46.0394L61.0039 51.9853L55.4244 57.4244C53.6023 59.2457 51.8619 61.1477 49.9853 62.9144C49.0163 63.8267 48.0147 64.6958 47.0039 65.561L45.0394 67.1921L40.5756 71.0039C39.3694 72.0467 38.1491 73.0779 37 74.1844C36.0585 75.0911 35.1652 76.0345 34.2847 77L32.5756 78.9113L30.8302 80.7137C29.6161 81.8924 28.3026 82.96 27.0355 84.0795L25.1698 85.7392L21.7145 88.8843C20.1439 90.2827 18.5241 91.6277 17.0116 93.0903L15.1049 95.0147L14.2137 96.0039L12.6528 98L12.0093 99L11.4576 100L10.6674 102C10.3891 102.963 10.2372 103.996 10.2747 105L10.3287 106L10.7153 109L10.9105 111C11.0463 112.994 10.9992 115.002 11 117L11 125L11 178L11 185C10.9973 186.666 11.0244 188.337 10.9105 190C10.8415 191.007 10.7146 192.001 10.5756 193L10.1698 196C10.0115 197.663 10.0088 199.331 10.0008 201L10.0008 205C10.0114 206.669 10.0114 208.336 10.1698 210C10.2654 211.005 10.4307 212.001 10.5756 213L10.8302 215C10.9758 216.327 10.9803 217.667 10.9961 219L11 222L10.9614 226L10.8457 228L10.7585 228.999L10.6528 230.981L10.7191 231.941L11.2685 233.682L11.7816 234.397L13.2323 235.397L14.1096 235.682L16.0154 235.941L17.0039 235.981L19 235.999L23 236L54 236L180 236L215 236L218 236C219.333 235.996 220.664 236.003 221.995 235.941L222.981 235.852L224.852 235.397L226.397 234.397L227.397 232.852L227.852 230.981L227.941 229.995L227.999 227C228.01 225.001 228.02 222.992 227.83 221C227.671 219.325 227.329 217.675 227.17 216C227.011 214.336 227.011 212.669 227.001 211L227 207L227 194L227 130L227 119L227.001 116L227.039 113L227.17 111L227.424 109C227.554 108.001 227.74 107.009 227.787 106C227.834 104.992 227.794 103.991 227.591 103L226.99 101.001L226.543 100.004L225.348 98.0394L223.801 96.1698L222.935 95.2855L221.174 93.5756L220.34 92.7145L219.572 91.8302L218.318 89.9606L217.858 88.9853L217.279 86.9992L217.055 85L217.001 82L217 76L217 57L216.999 53L216.981 51.0008L216.941 50.0046L216.682 48.0586L216.397 47.1481L215.397 45.6034C214.494 44.7005 213.223 44.2878 211.981 44.1481C210.328 43.9624 208.66 44.0034 207 44L203 44.0008L201.004 44.0193C199.458 44.0871 197.763 44.1131 196.434 45.0278L195.742 45.6034L194.742 47.1481L194.228 49.0193L194.109 50.0046L194.015 52L194.001 54L193.985 58.9985L193.91 60.9753L193.822 61.9552L193.522 63.841L193.432 64.3287L193 66z"/>
<path style="fill:#fefefe; stroke:none;" d="M47 99C48.6681 99.3097 50.3343 99.6631 52.0247 99.831C53.6786 99.9953 55.34 99.9912 57 99.9992L62 100L75 100L119 100L163 100L176 100L181 99.9992C182.66 99.9912 184.321 99.9953 185.975 99.831C187.666 99.6631 189.332 99.3097 191 99L190.225 97.3287L189.26 95.8395L187.772 93.9753L185.956 91.9985L182.999 89C181.031 87.0251 179.068 85.0408 177 83.1698L173 79.7145C171.978 78.8189 170.982 77.8995 170 76.9606C167.649 74.7139 165.412 72.3525 163 70.1698L160 67.5756C158.985 66.7022 157.98 65.8229 157 64.9105C154.629 62.7025 152.403 60.3443 150 58.1698L145 53.8302C143.63 52.5909 142.318 51.294 141 50C140.007 49.025 139.028 48.0322 138 47.0941C136.46 45.6893 134.868 44.2774 133 43.3179C132.058 42.8341 131.046 42.4585 130 42.2747C129.004 42.0995 128.006 42.0221 127 41.929L125 41.7153C123.666 41.5492 122.341 41.2794 121 41.1698L119 41.0394C117.667 41.0026 116.333 40.9901 115 41.0039C112.658 41.0281 110.269 41.0728 108 41.7238L106 42.4336L105 42.9383L103 44.3032L102 45.1435L100 47.0046L98 48.9113L96 50.7145L94 52.4244C92.9869 53.2995 91.98 54.177 91 55.0895C88.6288 57.2974 86.4033 59.6558 84 61.8302L81 64.4244C79.9855 65.2977 78.9799 66.1771 78 67.0895L72 72.9105C69.721 75.0325 67.2785 76.967 65 79.0895L62 82.0039C60.0113 83.9789 58.0465 85.9787 56.0147 87.9097L52.3009 91.3349L50.6844 92.8827L49.2647 94.439L48.1458 96.0131L47.4676 97.3704L47 99M35.2284 122.742L33.7423 123.742L32.7423 125.228L32.4336 126.109L32.2284 127.044L32.044 129.004L32.0039 131L32 134L32 143L32 196L32.0008 205L32.0586 207.996L32.3179 209.956L33.0278 211.772L34.3179 213.258L36.0586 214.258C36.9874 214.646 38.0079 214.791 39.0008 214.891C40.3261 215.025 41.67 214.992 43 214.999L53 215L90 215L96 214.996L99 214.91L100.995 214.695L101.981 214.517L103.852 213.968L104.682 213.566L105.397 213.062L106.411 211.697L106.941 209.942L107.42 206.999C107.57 206.003 107.748 205.005 107.83 204L107.961 202L107.998 199C108.004 197.668 108.001 196.33 107.91 195C107.842 193.993 107.71 193 107.579 192C107.449 191.002 107.286 190.009 107.259 189L107.325 187L107.83 183C107.955 181.669 107.984 180.336 107.996 179L107.996 176C107.981 174.664 107.949 173.333 107.845 172L107.599 169L107.653 167.001L108.072 165.019L108.942 163.148L110.303 161.603L111.144 161.028L113.019 160.318L115.001 160.059L118 160.001L121 160.005L122.999 160.059L123.995 160.148L125.941 160.603L127.682 161.603L128.397 162.318L128.972 163.148L129.678 165.019L129.906 167.001L129.906 168L129.803 170L129.745 171L129.71 173L129.87 176L129.986 179L130 182L130 187L130 201L130 205L130.019 207.995C130.086 209.514 130.103 211.192 131.028 212.486L131.603 213.142L132.318 213.682L133.148 214.106L134.059 214.427L136.005 214.811L138 214.96L141 214.999L148 215L185 215L191 215L195 214.985C196.004 214.96 196.998 214.913 197.999 214.826L199.981 214.517L201.852 213.968L203.397 213.062L204.397 211.697L204.682 210.856L204.852 209.942L204.981 207.995L205 206C205.008 204.667 204.999 203.331 205.09 202L205.285 200L205.675 197L205.741 195L205.675 194L205.17 190L205.039 188L205.002 185C204.997 184.001 204.996 182.998 205.039 182C205.083 180.994 205.162 179.999 205.285 179L205.576 177L205.83 175C205.939 174.004 205.961 173 205.985 172L206 168L206 162L206 142L205.999 136L205.961 133C205.907 131.661 205.791 130.325 205.556 129.005L205.137 127.059L204.852 126.148L204.486 125.318L203.411 124.024L201.853 123.279L200.941 123.059L198.995 122.735C197.341 122.471 195.681 122.215 194 122.259C192.32 122.304 190.669 122.674 189 122.83C187.005 123.017 185.001 122.998 183 123C181.003 123.002 178.999 123.032 177.004 122.921C175.438 122.835 173.886 122.627 172.326 122.478C171.565 122.405 170.803 122.366 170.039 122.348C169.109 122.326 168.168 122.334 167.24 122.412C165.486 122.56 163.744 122.823 161.985 122.921C160.326 123.014 158.661 122.997 157 123L152 123L134 123L86 123C83.9996 122.999 81.999 123.013 80 122.925C78.3314 122.852 76.6722 122.688 75 122.71C73.3309 122.732 71.6696 122.933 70 122.951C69.0042 122.961 68.0074 122.937 67.0147 122.855L62.5177 122.412C61.5714 122.337 60.6191 122.338 59.6705 122.334C58.5268 122.329 57.3814 122.331 56.24 122.412L52.9066 122.728L50.9853 122.752L49.9961 122.678L46 122.17L44 122.039L42 122.005L40.0008 122.015L38.0154 122.109L37.044 122.228L35.2284 122.742z"/>
<path style="fill:#020202; stroke:none;" d="M56.2284 161.028L54.7423 162.318L54.1798 163.148L53.4483 165.019L53.1975 167.001L53.2099 168L53.5455 172L53.5486 173L53.3796 175.995L53.5224 177.941L54.1937 179.682L54.7461 180.397L56.2284 181.397L57.1088 181.682L59.0154 181.941L60.0039 181.981L63 182L66 182L68 181.995L69.9954 181.941L70.9807 181.852L71.9414 181.682L73.6821 180.972L74.3958 180.397L75.3819 178.852L75.7623 176.981L75.6952 174.999C75.5393 173.667 75.2837 172.341 75.2083 171L75.1937 169L75.348 166.005L75.2809 165.019L74.7315 163.148L74.2184 162.318L73.5517 161.603L71.8904 160.603L69.9846 160.148L68.9961 160.059L67 160.005L65 160L63 160.001L61.0008 160.019C59.3753 160.09 57.6622 160.151 56.2284 161.028M165.109 160.742L163.434 161.742L162.179 163.228L161.434 165.044L161.11 167.004L161.047 168C161.014 169.306 161.038 170.605 161.095 171.91C161.133 172.8 161.218 173.691 161.322 174.576L161.559 176.281L161.913 178.031C162.142 178.86 162.415 179.735 162.992 180.4L163.59 180.973L164.314 181.397L165.147 181.682L167.019 181.941L168.005 181.981L171 182L176 181.999L178.981 181.941L179.941 181.852L181.682 181.397L182.397 180.972L182.972 180.397L183.397 179.682L183.682 178.852L183.941 176.981L183.995 174.999L184 172L183.999 169L183.981 167.001L183.852 165.019L183.682 164.059L182.972 162.318L182.397 161.603L180.852 160.603L179.941 160.318L177.995 160.059L176.999 160.019L175 160.001L171 160.004C169.998 160.018 169.004 160.039 168.004 160.109L167.015 160.228L165.109 160.742z"/>
</svg>
