<?xml version="1.0" standalone="yes"?>
<svg xmlns="http://www.w3.org/2000/svg" width="240" height="240">
<path style="fill:#ffffff; stroke:none;" d="M0 0L0 240L240 240L240 0L0 0z"/>
<path style="fill:#020202; stroke:none;" d="M118.004 3.65355L116.044 4.45679L115.108 5.00926L114.225 5.65277L112.699 7.21373C112.016 8.06502 111.521 9.04131 111.043 10.0154L109.692 13C108.595 15.3584 107.405 17.6709 106.248 20L104.298 24L102.92 27L101.091 31L99.3387 35L97.9198 38C97.4368 38.9957 96.9425 39.9842 96.5023 41C95.7903 42.6431 95.2249 44.3431 94.5478 46C93.7185 48.0296 92.7573 50.0016 91.8573 52C91.2556 53.336 90.6915 54.6898 90.034 56C89.196 57.6697 88.29 59.3017 87.5093 61L86.2145 63.9961C85.7273 65.0144 85.2003 66.0067 84.49 66.8912L82.8665 68.5671L81.9452 69.2616L80.9815 69.8356L78.9992 70.6559L78 70.9414L76 71.3804C74.6827 71.6552 73.3406 71.8108 72 71.9113C70.3349 72.0361 68.6629 72.0016 67 72.1705C64.6399 72.4103 62.3309 72.9664 60 73.3858L57 73.8688C55.6643 74.0569 54.3268 74.2118 53 74.4599L48 75.5363L46 75.8302L42 76.1659L37 76.8341L34 77.0787L33 77.1806L31 77.5139L27 78.5008L25 78.9097L23 79.304L22 79.5579L20.0046 80.3171L18.0579 81.5139L17.1443 82.2785L16.3032 83.1335L14.9383 85.0185L14.4336 86.0046L13.7276 88L13.4985 89L13.2832 91L13.473 93L13.7569 94L14.7431 96L16.2284 98L18.044 100L20.0039 102L24 106L37 119L41 122.999C42.3232 124.314 43.6466 125.627 45 126.91L47 128.715L50 131.285C51.7004 132.8 53.391 134.335 54.9444 136.004L56.7068 138L57.4468 139L58.5085 141L58.8063 142C59.2829 143.99 58.775 146.036 58.4344 148C58.0871 150.003 57.7683 152.013 57.338 154L55.8843 160C55.4124 161.991 55.007 163.995 54.6003 166C54.2614 167.671 53.9364 169.345 53.5247 171L52.4236 175C51.8806 176.991 51.3505 178.989 50.8873 181L50.2608 184L49.5502 188C49.2746 189.346 48.9403 190.676 48.5748 192L47.7099 195C47.243 196.655 46.7848 198.31 46.4606 200C46.1436 201.653 45.9514 203.332 45.733 205L45.4645 207L45.3758 208L45.3441 209L45.5224 210.999L46.0363 212.985L46.9383 214.891L47.564 215.772L49.1443 217.262C50.5616 218.301 52.286 218.813 54 219.087L56 219.271L57 219.271L58 219.211L59 219.091L60 218.917L62 218.398C63.0254 218.074 64.0289 217.662 65 217.201C66.0125 216.721 67.0128 216.221 68 215.691L72 213.421L76 211.15L79 209.421L83 207.15L87 204.86L92 202.14L97 199.309L102 196.742L104 195.691L107 194L110 192.309L115 189.696L118 188.137L119 187.715L121 187.231L123 187.357C124.054 187.561 125.045 188.036 126 188.505L128 189.577L130 190.642L135 193.109C136.687 193.983 138.347 194.913 140 195.85L143 197.579L148 200.421L152 202.691L157 205.309L163 208.691L170 212.309C171.352 213.042 172.676 213.821 174 214.603L176 215.796C177.609 216.731 179.219 217.72 181 218.301C182.936 218.932 184.981 219.001 187 218.992L189 218.941L189.999 218.852L191.985 218.397L193.891 217.397L194.772 216.682L195.566 215.852L196.821 213.981L197.566 211.999L197.772 211L197.89 210L197.97 208C197.979 206.669 197.912 205.315 197.7 204L197.536 203L197.112 201L196.37 198L195.576 195C195.209 193.669 194.809 192.347 194.5 191C194.12 189.346 193.875 187.665 193.551 186C193.289 184.657 192.955 183.327 192.625 182C192.292 180.663 191.95 179.326 191.576 178C190.918 175.67 190.211 173.357 189.654 171C188.87 167.683 188.348 164.308 187.525 161L185.895 155C185.399 153.012 185.013 151.001 184.576 149C184.285 147.667 183.957 146.345 183.724 145L183.618 143L184.118 141L184.643 140L185.333 139L187.059 137L188.019 136L190.001 134.004L193 131.09L195 129.285L197 127.576C198.013 126.7 199.02 125.823 200 124.91L203 121.996L207 118L216 109L220.996 104.015L223.895 101.17C224.74 100.331 225.606 99.4989 226.362 98.5756L227.633 96.8302L228.633 94.9606L229.358 92.9961L229.594 91.9992L229.744 91L229.743 89L229.343 87.0039L228.99 86.0154L228.543 85.044L227.347 83.2245L226.606 82.419L224.895 81.0856L222.985 80.1088L221.996 79.7145C221.009 79.3634 220.016 79.0144 219 78.7569L218 78.5031L217 78.2863C215.671 78.0302 214.337 77.8012 213 77.5903C212.001 77.4327 211.006 77.273 210 77.1659L206 76.8341L201 76.1659L197 75.8194L195 75.4861L194 75.2546C192.67 74.9237 191.352 74.5558 190 74.321C188.345 74.0336 186.663 73.9423 185 73.7176L182 73.2461L179 72.7539L177 72.4282C176.001 72.2848 175.007 72.162 174 72.0856L172 71.9753L170 71.8302C168.654 71.7086 167.321 71.4523 166 71.1767C164.639 70.8927 163.246 70.507 162.019 69.8356L160.144 68.5671L159.302 67.7716L157.923 65.956L156.927 63.9961L155.671 61L154.293 58L153.363 56L151.896 53C151.224 51.6752 150.528 50.3685 149.948 49C149.391 47.6894 148.954 46.3333 148.457 45L147.613 43C147.149 41.9819 146.613 40.9959 146.104 40L145.108 38L143.703 35L141.309 30L139.579 26L137.424 21C136.724 19.3353 136.076 17.6477 135.335 16C134.57 14.2992 133.734 12.6287 132.818 11.0039C132.081 9.69737 131.339 8.36345 130.366 7.21373L128.787 5.65277L126.957 4.45679L124.996 3.65355L123.999 3.39815L123 3.22916L122 3.14815L121 3.14815L120 3.22916L118.004 3.65355z"/>
<path style="fill:#ffffff; stroke:none;" d="M51 98L51.4715 99.6296L52.1852 100.991L53.4344 102.6L54.2284 103.429L56.044 105.17L59.0008 108.015L66 115L74.9992 124L77.956 127L79.7755 129L81.2971 131L81.9105 132L82.4275 133L83.1921 135L83.6312 137L83.7245 138L83.733 139L83.5216 141L82.8804 144L82.2099 147C81.8496 148.669 81.5186 150.343 81.1049 152C80.6035 154.009 79.9632 155.982 79.5 158C79.0441 159.987 78.7811 162.011 78.3349 164C78.1089 165.007 77.8518 166.007 77.5718 167L76.6597 170C76.2517 171.328 75.8218 172.646 75.5031 174C75.2692 174.993 75.1082 175.996 74.9282 176.999L74.6489 178.981L74.5764 179.941L74.6042 180.848L74.7731 181.667L75.6427 182.864L77.152 183.264L78.0594 183.153L79.0193 182.867L80.0046 182.452L82 181.419L84 180.358L88 178.396L91 176.783L94 175.119C95.9874 174.07 98.0514 173.175 100 172.052C101.367 171.265 102.662 170.366 104 169.532L106 168.333L108 167.234L111 165.59C111.988 165.049 112.97 164.494 114 164.035C115.292 163.459 116.622 163.006 118 162.684C118.981 162.456 119.991 162.269 121 162.217L123 162.252L125 162.638C126.031 162.918 127.017 163.334 128 163.746C129.71 164.463 131.37 165.288 133 166.17C134.365 166.907 135.661 167.769 137 168.551L139 169.691L142 171.305L146 173.525L151 176.105L155 178.223L159 180.297L161.998 181.877L163.975 182.787L165.84 183.442L167.329 183.798L169 184L168.817 182.329L168.724 181.841L168.571 180.84L168.246 178.975L167.551 175L166.449 170L165.551 165C165.292 163.657 164.955 162.327 164.625 161C164.292 159.663 163.95 158.326 163.576 157L162.425 153C162.058 151.675 161.726 150.342 161.425 149L160.801 146L160.201 143L159.655 140L159.532 139L159.5 137L159.623 136L159.843 135L160.576 133L161.703 131L162.419 130L163.225 129L165.044 127L166.015 126L169 123L176 116C177.985 114.016 179.948 112.004 182 110.09C183.911 108.307 185.955 106.673 187.811 104.832L189.427 102.985L190.676 101.157L191.444 99.6713L192 98L190.329 97.5671L188.84 97.2747L184.998 96.7253C183.659 96.519 182.33 96.2593 181 95.9992L172 94.1998C170.008 93.8047 168.02 93.3927 166 93.1667L162 92.8341L157 92.1551L154 91.8295L153 91.6744L151 91.196L150 90.8519L149 90.4275L147.004 89.2971C144.914 87.8943 143.129 86.0524 141.688 83.9961C141.021 83.0453 140.487 82.0198 139.938 81L138.924 79L137.475 76L135.695 72L134.305 69L132.529 65L130.674 61C129.779 59.0074 128.978 56.9742 128.042 55C127.561 53.987 127.056 52.989 126.525 52.0015L124.41 48.1605L123.673 46.6713L123 45L121.113 45.5903L120.339 46.0293L119.188 47.3179L118.181 49.0586L117.71 50.0193C116.893 51.6546 116.16 53.3317 115.414 55L114.525 57L112.105 62L110.703 65L108.309 70L107.001 73L104.421 79C103.838 80.3449 103.296 81.7134 102.586 82.9992C101.811 84.4051 100.891 85.7232 99.7863 86.892C98.6706 88.0726 97.4074 89.1027 95.9961 89.9105C95.047 90.4538 94.0403 90.8655 93 91.1968C91.3751 91.7142 89.6791 91.8874 88 92.1296L86 92.4205C85.0014 92.5698 84.0055 92.7325 83 92.8302C82.0013 92.9273 81.002 92.9598 80 93L78 93.0926C76.9877 93.1788 75.9957 93.3086 75 93.5139L71 94.5008C70.0077 94.734 69.003 94.8987 68 95.0764L62 96.0802L59 96.5756L54.1605 97.2747L52.6713 97.5671L51 98z"/>
</svg>
