<?xml version="1.0" standalone="yes"?>
<svg xmlns="http://www.w3.org/2000/svg" width="240" height="240">
    <path stroke-width="24" style="fill:#ffffff;" d="M1.25977 1.25977C-4.9195 7.43904 0 39.1613 0 48L0 187L0 226C5.7778e-06 229.235 -1.41856 237.129 1.82165 239.178C9.4764 244.02 30.9432 240 40 240L143 240L214 240C219.296 240 234.832 242.649 238.74 238.74C244.919 232.561 240 200.839 240 192L240 53L240 14C240 10.7652 241.419 2.87123 238.178 0.821655C230.524 -4.02029 209.057 0 200 0L97 0L26 0C20.704 0 5.16846 -2.64893 1.25977 1.25977z"/>

    <path stroke-width="24" style="fill:#020202;" d="M109 3.76302C106.238 4.42224 103.602 5.74644 101 6.85367C76.4513 17.3016 120.359 27.8094 108.034 41.1354C104.295 45.1789 82.7831 38.358 77 38.0786C56.9448 37.1097 35.757 46.7462 24.9903 64C-5.01649 112.086 23.1587 190.683 72 215.147C90.795 224.561 108.465 215.026 128 215.652C140.614 216.056 151.074 221.849 164 218.6C221.025 204.27 258.648 95.4575 211.981 53.3285C199.337 41.9147 181.974 36.0504 165 38.1803C157.996 39.0591 142.583 45.4759 136.266 42.5035C123.99 36.728 132.615 -1.87383 109 3.76302z"/>

    <path stroke-width="24" style="fill:#ffffff;" d="M96 64C31.9569 41.77 27.7035 121.519 49.8253 161C57.6557 174.975 72.4351 195.306 90 196.834C100.407 197.74 110.612 192.665 121 192.561C132.827 192.443 145.337 198.885 157 196.514C182.129 191.407 198.373 158.949 205.154 137C213.821 108.944 209.423 58.7361 170 59.7826C140.417 60.5679 120.963 81.5032 94 88.4824C66.9329 95.4884 92.0371 73.024 96 64z"/>

    <path stroke-width="24" style="fill:#020202;" d="M178.949 96.7305C159.563 97.4004 166.853 112.152 166.992 125C167.038 129.219 164.251 141.416 171.072 141.211C188.455 140.688 191.743 96.2883 178.949 96.7305z"/>

</svg>
