<?xml version="1.0" standalone="yes"?>
<svg xmlns="http://www.w3.org/2000/svg" width="240" height="240">
<path style="fill:#ffffff; stroke:none;" d="M0 0L0 240L240 240L240 0L0 0z"/>
<path style="fill:#010101; stroke:none;" d="M108 50.5177L107 50.7469L104 51.5262L100 52.4884L98 53.0895C96.9876 53.4239 95.9905 53.8104 95 54.2045L92 55.4244L89 56.7191L86 58.0039C84.9911 58.4403 83.9792 58.873 83 59.3742C81.9721 59.9003 80.9758 60.4754 80 61.0926C78.9831 61.7359 78.0006 62.4298 77.0147 63.1188L75.0934 64.4846C74.2227 65.1176 73.342 65.7389 72.5139 66.4282L71 67.7847L68.6752 70.1852L65.9637 73.0147L64.0394 75.0008L62.2099 77L60.6096 79C59.8955 79.9618 59.2487 80.9749 58.6304 82C58.0397 82.9794 57.4867 83.9797 56.9699 85L54.6312 90C53.4632 92.3363 52.0474 94.5441 51.1289 97C50.6415 98.3029 50.3233 99.65 50.0008 101L49.2685 104L48.4745 107C48.1476 108.324 47.8627 109.659 47.615 111C47.2473 112.99 47.0147 114.997 46.7292 117L46.2855 120C46.1624 120.997 46.0733 121.995 46.054 123C46.0347 124.005 46.0929 124.999 46.1713 126L46.439 128C46.7515 130.011 47.2445 131.99 47.561 134L47.8333 136L48.1698 140C48.3096 141.349 48.5798 142.683 48.8997 144C49.312 145.697 49.8278 147.373 50.4637 149C51.1322 150.71 51.9501 152.352 52.7562 154L54.7423 158L55.7029 160C56.6688 162.046 57.585 164.114 58.8495 166C60.044 167.781 61.4763 169.376 62.8704 170.999C63.9981 172.313 65.1208 173.63 66.2855 174.91L67.1698 175.83C68.3672 177.066 69.7189 178.144 71.0039 179.285L73 181.074C74.6255 182.556 76.2132 184.074 78 185.366C79.5826 186.51 81.3089 187.45 83 188.42C84.6421 189.362 86.2763 190.312 88 191.1C89.9507 191.991 91.9934 192.671 94 193.424C95.3302 193.922 96.6448 194.477 98 194.907C99.3051 195.32 100.633 195.676 102 195.815L104 195.964C105.334 196.019 106.672 196.029 108 196.174L110 196.464L112 196.884L115 197.536C116.318 197.789 117.66 197.912 119 197.957C120.328 198.001 121.679 197.977 123 197.83C125.346 197.569 127.671 197.134 130 196.754L134 196.13C135.001 195.989 136.006 195.875 137 195.69C138.351 195.438 139.672 195.078 141 194.731L143 194.231C144.335 193.908 145.679 193.631 147 193.251C148.362 192.859 149.701 192.392 151 191.826C152.732 191.07 154.377 190.141 156 189.177C157.691 188.173 159.34 187.1 161 186.047C162.679 184.981 164.374 183.937 166 182.791C167.02 182.072 168.02 181.326 168.996 180.547C169.992 179.752 170.953 178.92 171.91 178.079C173.11 177.024 174.262 175.902 175.331 174.714C176.9 172.97 178.251 171.051 179.645 169.169C180.495 168.022 181.372 166.893 182.178 165.715C182.791 164.819 183.364 163.901 183.905 162.961C185.382 160.393 186.593 157.685 187.836 155L189.229 152L189.691 151C190.26 149.689 190.815 148.376 191.212 147L191.686 145L191.855 144C192.057 142.662 192.229 141.325 192.51 140L193.255 137C193.489 136.005 193.694 135.016 193.816 134C194.014 132.343 193.991 130.666 193.999 129L194.004 123C194.019 121.664 194.053 120.333 194.155 119L194.39 116L194.302 114C194.123 112.616 193.649 111.32 193.225 110C192.905 109.005 192.593 108.021 192.364 107C192.068 105.679 191.944 104.328 191.69 103C191.496 101.985 191.252 100.987 190.945 100C190.629 98.9834 190.259 97.9743 189.829 97L187.499 92L185.83 88C185.371 86.9769 184.87 85.9782 184.32 85.0008C183.749 83.9854 183.125 83.0096 182.481 82.0394L181.116 80.1698L180.414 79.2855L178.34 76.7153C177.135 75.1864 176.009 73.5891 174.674 72.1667C173.532 70.9492 172.272 69.8653 170.985 68.8048C169.678 67.7274 168.341 66.6851 167 65.6512C165.679 64.6332 164.351 63.6217 163 62.6443C161.707 61.7086 160.399 60.808 159 60.0347C158.026 59.4965 157.011 59.0501 156 58.5895L153 57.1945L148 54.6412C147.029 54.1797 146.022 53.8006 145 53.4676C142.72 52.7242 140.357 52.3255 138 51.9198L135 51.3897C133.365 51.0886 131.737 50.7476 130.09 50.5193C128.637 50.318 127.177 50.2168 125.715 50.1304L122.961 50.0285C121.638 50.0139 120.321 50.0563 119 50.1304L116 50.2901C114.331 50.315 112.669 50.152 111 50.1682C109.987 50.178 108.992 50.3282 108 50.5177z"/>
<path style="fill:#ffffff; stroke:none;" d="M130 66L129.685 68.1551L129.396 69.1458L128.397 70.9352L126.852 72.7114L125.941 73.5571C124.677 74.6352 123.379 75.6651 122 76.5949C120.389 77.6812 118.662 78.5757 117 79.5787L114 81.4552L112 82.5586L111 82.9946L110 83.3472L108 83.7716C106.329 83.9935 104.655 83.8094 103 83.5602L101 83.196L98 82.6157L96 82.304L94 82.1744L93 82.1898L91.0015 82.2816L90.0046 82.2631L88.0448 81.8472L86.159 80.8048L85.6713 80.4961L84 79L82.3295 79.9035L81.8449 80.2415L80.8542 80.8958L79.0687 82.3441C78.1466 83.1754 77.3045 84.0807 76.5177 85.0401C75.4866 86.2976 74.5816 87.6547 73.6713 89C72.5957 90.5896 71.5557 92.2014 70.5556 93.8395L70.0193 94.841L69.7323 95.3287L69 97L70.5571 97.7747L71.7662 98.74L73.0301 100.228L74.0818 102.044L74.8912 104.004L75.2106 105.001L75.6752 107C75.9861 108.653 76.0326 110.343 76.321 112C76.4974 113.013 76.7515 114.003 77 115L77.4892 117L77.8403 119L78.0355 121L78.0802 123C78.0321 124.006 77.9415 125.038 77.6173 126L76.841 128C76.2132 129.336 75.5204 130.639 74.9475 132C74.3958 133.311 73.9739 134.664 73.4915 136L72.7284 137.999L72.2816 138.995L71.206 140.941L69.8858 142.679L68.6134 143.914L67 145L67.1134 146.671L67.3804 148.16L67.9159 150.025L68.2716 151.005C68.6851 152.02 69.1188 153.019 69.6096 154C70.1223 155.025 70.6849 156.015 71.2716 156.999L72.6127 158.985L74.2052 160.892C74.9943 161.78 75.9272 162.525 76.8549 163.26L78.3295 164.225L80 165L81.6373 163.378L82.4498 162.775L84.115 162.079L86.0162 161.719L88.0008 161.61L89 161.61L93 161.773L96 161.916L99 161.993C101.019 162.047 103.078 162.02 105 162.742L107 163.724L108 164.38L110 165.85L112 167.306C113.005 168.014 114.033 168.695 115 169.455L116.996 171.129L117.985 172.054L118.955 173.019L120.757 174.999L122.167 176.975L122.968 178.84L123.099 179.841L123 182L124.671 182.179L125.159 182.26L127.045 182.471L129.005 182.455C130.028 182.36 131.007 182.09 132 181.843L134 181.331L137 180.664L139 180.1C140.647 179.573 142.239 178.889 143.84 178.24L145.329 177.631L147 177L146.723 175.329L146.572 174.841L146.328 173.84L146.091 172.955L145.883 171.975L145.727 169.998C145.76 168.621 146.137 167.31 146.524 166L146.863 165L147.587 163L148.319 161L149.772 157L150.45 155.004C150.886 153.716 151.237 152.364 151.985 151.209L153.314 149.598L155.059 148.178L156.019 147.496L157.005 146.799L159 145.36L162 143.13C162.989 142.399 163.972 141.651 165 140.975C166.837 139.768 168.786 138.617 170.998 138.294L172.975 138.241L173.955 138.35L175.841 138.679L176.329 138.792L178 139L178.004 137.329C178.018 136.209 178.058 135.092 178.145 133.975L178.576 130C178.745 128.338 178.911 126.672 178.931 125C178.943 124.001 178.933 122.996 178.827 122.002C178.69 120.714 178.473 119.441 178.286 118.16L178.167 117.159L178.098 116.671L178 115L176.329 115.245L175.841 115.231L174.84 115.242L172.975 114.967C171.557 114.635 170.236 114.053 169 113.286C167.938 112.627 166.982 111.83 166 111.061L165 110.242L163 108.572C161.303 107.119 159.617 105.638 158.109 103.985L156.43 101.999L155.728 101L154.653 99C154.077 97.727 153.751 96.352 153.425 95C153.103 93.6638 152.817 92.3231 152.441 91L151.505 88C151.096 86.6764 150.722 85.346 150.394 84C150.076 82.6963 149.826 81.3515 149.839 80.0046L150.035 78.0448L150.467 76.159L150.606 75.6713L151 74L149.329 73.1011L148.841 72.777L147.84 72.159L144.995 70.3218L143 69.2377C141.714 68.6129 140.358 68.1174 139 67.6752L137.002 67.0401L135.025 66.5177L133.16 66.1844L132.159 66.0926L130 66z"/>
<path style="fill:#010101; stroke:none;" d="M116 97L114.329 97.5918L113.841 97.8364L112.84 98.3148L110.99 99.5131C108.915 101.061 107.256 103.04 105.59 105.001L103.92 107L100.587 111L98.1242 114L96.6381 116L96.0054 117L95.0093 119L94.6535 120L94.2292 122C94.0173 123.676 94.1685 125.403 94.7284 127C95.2347 128.444 96.0631 129.733 96.9028 131L98.9761 134L101.72 138L103.86 141L105.295 142.995C106.663 144.847 108.018 146.844 110.093 147.972L112.015 148.682L113.004 148.851L115 148.966L117 148.909C119.729 148.728 122.399 148.076 125 147.255L130 145.519C131.651 144.982 133.332 144.554 134.999 144.073L136.981 143.348L138.867 142.272L140.486 140.772L141.142 139.891L142.106 137.985L142.641 135.999L142.772 135L142.79 133L142.7 132L142.285 129L142.093 127C142.054 125.997 142.033 125.003 142.094 124C142.177 122.651 142.386 121.322 142.665 120L143.521 116L143.721 114.001L143.566 112.019L143.333 111.055L142.542 109.278L141.991 108.509L141.347 107.84L139.786 106.765L138.895 106.312L136.985 105.465C135.996 105.054 135.007 104.649 134 104.285L130 102.975L127 101.946L123.002 100.421C121.715 99.9232 120.419 99.4474 119.16 98.8796L118.159 98.3465L117.671 98.1188L116 97z"/>
</svg>
