<?xml version="1.0" standalone="yes"?>
<svg xmlns="http://www.w3.org/2000/svg" width="240" height="240">
<path style="fill:#fefefe; stroke:none;" d="M0 0L0 240L240 240L240 0L0 0z"/>
<path style="fill:#020202; stroke:none;" d="M219 20L122 20L99 20L97.0008 20.0046L95.0185 20.0586L94.0548 20.1481L92.2785 20.6034L90.8619 21.6034L90.3326 22.3179L89.662 24.0586L89.5131 25.0193L89.4707 26.0046L89.5039 27.0008L89.6397 29L89.6296 31C89.5315 32.3324 89.338 33.6618 89.338 35L89.4491 37L89.6289 39L89.6613 40L89.5363 42L89.4097 43L89.169 45C89.0454 46.329 89.0007 47.6657 89.0432 49C89.0753 50.0055 89.1624 51.0019 89.2855 52L89.7145 55C89.8441 55.997 89.9207 56.9956 89.9599 58C90.025 59.6688 89.9619 61.3354 89.8449 63L89.5941 66L89.5941 68C89.6307 69.0023 89.7671 70.0011 89.8488 71C89.9852 72.6681 90.0736 74.339 90.2855 76C90.4563 77.3387 90.7013 78.6685 90.9198 80L92.0802 87L92.5725 90L92.8449 92L93.2816 96L93.8696 100C94.0536 101.336 94.2118 102.673 94.4599 104C94.8353 106.008 95.4113 107.975 95.6998 110C95.9834 111.99 95.9955 113.994 95.9954 116C95.9953 117.331 95.9799 118.678 95.8148 120C95.6888 121.009 95.5129 122.027 95.2114 123L94.5355 125L93.2685 128L91.8765 131L90.8017 133L90.189 134C89.5203 135.016 88.8393 136.02 88.0972 136.985L86.5355 138.907L85.6998 139.816L84.8264 140.674L82.9606 142.236L80.9961 143.613L79 144.826L77 145.866L75 146.742C73.052 147.529 71.0324 148.102 69 148.622C67.3508 149.044 65.6869 149.459 64 149.7C63.0042 149.842 62.005 149.923 61 149.961C59.3317 150.025 57.6639 150.011 56 150.17L52 150.715C51.0009 150.838 50.0056 150.917 49 150.961L47 150.996L42 151.004C40.3259 151.024 38.6601 151.061 37 151.3C35.649 151.495 34.3188 151.808 33 152.156C31.654 152.511 30.3192 152.912 29 153.356C26.9507 154.045 24.948 154.846 23 155.785C20.8918 156.802 18.842 157.93 17.0039 159.39L15.0432 161.105L14.1042 162.043L13.2091 163.015L11.5988 165.001C10.6548 166.301 9.73757 167.626 8.90355 169C8.12985 170.275 7.35216 171.583 6.86343 173L6.25 175L5.52623 178L4.47454 182C4.07877 183.658 3.72752 185.323 3.42438 187C3.1267 188.647 2.86722 190.303 2.64043 191.961C2.35974 194.013 2.10067 196.095 2.25772 198.17C2.356 199.468 2.61724 200.733 2.88735 202.004L3.33565 204L3.71451 206L4.1304 209C4.41545 211.005 4.75308 213.002 5.08025 215L5.57176 218L5.83025 220L5.96065 222C6.06396 224.335 5.90857 226.676 6.22839 228.999L6.74228 230.985L7.17901 231.956L8.43364 233.772L10.1088 235.262L12.0154 236.296L14.0008 236.927L15 237.137L17 237.394L18 237.44L19 237.444L21 237.416L23 237.51L26 237.833C26.9987 237.918 27.9974 237.966 29 237.946C30.0057 237.926 31.0022 237.837 32 237.715L35 237.285L37 237.09L40 237.004L44 237L52 237L74 237L84 237L88 236.985C89.34 236.957 90.6756 236.896 92 236.674C93.7099 236.389 95.3641 235.866 97 235.304C99.3554 234.495 101.654 233.527 104 232.692L109 231.001C110.988 230.344 112.977 229.695 115 229.155C116.983 228.626 118.99 228.209 121 227.801L125 227.005L126.996 226.674L128.956 226.607L129.891 226.774L131.57 227.643L132.272 228.333L133.352 230.059C133.783 231.003 134.1 231.987 134.464 232.957L134.85 233.891L135.854 235.566L136.513 236.258L137.279 236.821L139.055 237.566L141.005 237.891C142.004 237.961 142.998 237.983 144 237.996L147 237.996C148.336 237.984 149.669 237.957 151 237.83L155 237.289C156 237.175 156.992 237.104 158 237.129C159.682 237.17 161.336 237.499 163 237.715C163.998 237.844 164.995 237.917 166 237.961L168 237.996L171 238C172.666 237.998 174.336 238.017 176 237.911L179 237.615L181 237.455C182.679 237.417 184.335 237.662 186 237.834L188 237.961C189.332 238.017 190.668 237.999 192 238L199 238L204 237.999C205.333 237.996 206.669 238.002 208 237.91C209.68 237.795 211.333 237.51 212.999 237.281L214.981 237.031L215.941 236.891C216.799 236.724 217.694 236.535 218.397 235.973L218.972 235.397L219.397 234.682L219.682 233.852L219.852 232.941L219.981 230.995L219.999 229L220 227L220 221L220 200L220 194C219.997 192.334 220.024 190.663 219.91 189C219.795 187.319 219.511 185.666 219.271 184C219.079 182.667 218.934 181.325 218.69 180C218.503 178.987 218.246 177.998 217.996 177L217.474 175L216.526 171L215.471 167L214.715 164L214.115 162L213.779 161L213.13 159L212.878 158L212.657 156C212.658 153.893 213.477 151.942 214.194 150L215.308 147L216.333 144L217.329 141C217.758 139.68 218.184 138.356 218.486 137C218.851 135.364 219.013 133.7 219.221 132.039C219.442 130.267 219.71 128.497 219.845 126.715C219.989 124.812 219.991 122.906 219.999 120.999L220 117L220 103L220 60L220 37L220 30L219.96 26.0046L219.91 25.0247L219.711 23.1605L219.522 22.159L219 20z"/>
<path style="fill:#fefefe; stroke:none;" d="M119.005 42.4437L117.059 42.8627L116.148 43.1481L115.318 43.5139L114.028 44.5887C113.494 45.2888 113.248 46.1987 113.148 47.0586C112.958 48.6969 113.003 50.3539 113 52L113 63L113.004 67C113.016 68.336 113.043 69.6691 113.17 71C113.329 72.6745 113.668 74.3257 113.83 76C113.959 77.3314 113.97 78.6653 114.035 80C114.085 81.0053 114.159 82.0016 114.289 83C114.42 84.0063 114.613 85.0038 114.804 86C115.123 87.664 115.477 89.3217 115.715 91L116.155 95L116.845 100L117.155 103C117.355 104.67 117.671 106.326 117.83 108C117.957 109.331 117.984 110.664 117.996 112L118 116L117.996 120C117.987 121 117.98 122.002 117.91 123C117.769 125.025 117.401 127.014 116.996 129C116.584 131.023 116.143 133.05 115.452 135C114.589 137.435 113.395 139.748 112.138 142C110.989 144.06 109.757 146.067 108.405 148C107.681 149.035 106.869 150.009 106.069 150.985C103.95 153.572 101.729 156.09 99.2508 158.34C98.1775 159.315 97.0666 160.246 95.9066 161.116C94.645 162.062 93.3301 162.923 91.9992 163.768C90.7108 164.585 89.3719 165.35 88 166.019C86.3835 166.806 84.6997 167.416 83 167.995C81.0246 168.669 79.0324 169.286 77 169.764C75.3472 170.153 73.6756 170.455 72 170.725L69 171.13C67.0011 171.409 65.0147 171.763 63 171.911C61.3346 172.033 59.6636 172.009 58 172.17L55 172.576C54.0008 172.715 53.0068 172.84 52 172.91L47 173.09C44.9848 173.232 42.9875 173.571 41 173.924C39.9933 174.102 38.9963 174.286 38 174.518L37.0008 174.796L35.0147 175.533L33.0934 176.533L32.1852 177.133L30.5293 178.532C29.2276 179.822 28.211 181.377 27.4028 183.015C26.9319 183.969 26.5258 184.979 26.2238 186L25.9282 187L25.4676 189L25.1736 191C24.9932 192.659 25.0061 194.334 25.0008 196L25.0394 200L25.1698 202L25.2863 203L25.7546 206L26.3048 208.995L26.5579 209.981L27.3171 211.867L28.5139 213.486L30.1335 214.682L32.0185 215.427L33.0046 215.656L35 215.906L38 215.996L43 216L51 216L68 216L74 215.999C75.3328 215.996 76.6695 216.002 78 215.91C79.6824 215.795 81.3375 215.517 83 215.245C84.3378 215.027 85.6801 214.809 87 214.497C89.0301 214.017 90.9935 213.308 93 212.745C94.661 212.278 96.3561 211.934 98 211.407C99.0178 211.08 100.003 210.677 101 210.295C101.994 209.914 102.985 209.539 104 209.216C105.975 208.587 108.003 208.131 110 207.576C112.001 207.019 113.981 206.388 116 205.898L118 205.45L121 204.921C122.662 204.64 124.324 204.348 126 204.166C127.665 203.985 129.339 203.935 131 203.711C132.343 203.531 133.671 203.257 135 203C136.331 202.742 137.658 202.484 139 202.289L141 202.094L142.999 202.073L144.981 202.319L145.941 202.603L146.852 203.028L147.683 203.603L148.987 205.148L149.776 207.019L150.285 208.997L150.889 210.956L151.858 212.772L152.514 213.566L154.133 214.821C155.914 215.846 158.003 215.922 160 215.985L162 215.999L166 216L183 216L189 215.985C190.004 215.969 190.997 215.911 191.996 215.811L192.985 215.656L193.956 215.427L194.891 215.106L195.772 214.682L197.258 213.486L198.258 211.867L198.566 210.945L198.772 209.981L198.956 207.999L198.995 206L198.961 203L198.83 201C198.748 199.994 198.563 198.998 198.421 198L198.13 196L197.576 192L197.08 189L196.576 186L195.803 182L195.246 179C195.064 177.998 194.901 176.991 194.66 176C194.413 174.981 194.099 173.995 193.772 173L193.075 171C192.533 169.354 192.031 167.696 191.669 166C191.458 165.011 191.263 164.009 191.174 163C190.968 160.672 190.997 158.335 191 156L191.039 152L191.174 150C191.293 148.651 191.582 147.308 191.924 146C192.548 143.619 193.531 141.357 194.23 139C194.718 137.354 195.049 135.673 195.424 134C195.87 132.006 196.402 130.024 196.701 128C196.945 126.341 196.987 124.665 197.166 123L197.715 119C197.838 118.001 197.917 117.006 197.961 116L197.999 113L198 110L198 100L198 70L198 57L197.999 51L197.981 49.0039L197.852 47.044L197.682 46.1088L197.397 45.2284L196.397 43.7423L194.852 42.7423L193.941 42.4336L192.981 42.2284L190.999 42.044L190 42.0154L188 42.0008L185 42L177 42L140 42L128 42C124.999 42.0012 121.972 41.9157 119.005 42.4437z"/>
<path style="fill:#020202; stroke:none;" d="M153 64.4838L151.004 65.0324L150.015 65.4336L149.044 65.9383L148.109 66.564L147.228 67.3032L145.742 69.0579C143.799 71.946 143.692 75.8195 145.009 78.9846C145.701 80.6454 146.75 82.1837 148.214 83.2577L150.043 84.2577L152.004 84.7716C152.995 84.9414 153.999 84.9466 155 84.9691L156.999 84.8943L158.985 84.6057L160.906 83.9907L161.811 83.5432L162.657 82.9907L164.12 81.6057L165.217 79.8951L165.617 78.9568L165.917 77.9846L166.231 75.9992L166.206 74L165.902 72.0008L165.293 70.0154L164.835 69.044L163.567 67.2284L161.891 65.7423L159.985 64.7431L157.999 64.2431L157 64.1481L156 64.1343L155 64.1898L153 64.4838M151.005 107.742L149.055 108.742L148.133 109.434L147.279 110.228L146.514 111.109L145.858 112.044L144.894 114.004C144.294 115.574 144.075 117.33 144.254 119L144.657 120.999L145.01 121.996L145.457 122.985L146.009 123.956L146.653 124.891L147.394 125.772L149.105 127.258C150.278 128.063 151.602 128.542 153.001 128.768L155 128.913L156 128.88L157 128.782L157.999 128.605L159.985 127.991C161.645 127.297 163.183 126.251 164.258 124.786L165.258 122.957L165.566 121.985L165.771 120.996L165.941 119L165.887 117L165.771 116L165.566 115.001L165.258 114.004L164.258 112.044C163.193 110.428 161.706 109.067 159.985 108.179L157.999 107.434L157 107.232L156 107.124L154 107.124L153 107.232L151.005 107.742z"/>
</svg>
