<svg width="240.000000pt" height="240.000000pt" viewBox="0 0 240.000000 240.000000" xmlns="http://www.w3.org/2000/svg">
  <g transform="translate(0.000000,240.000000) scale(0.100000,-0.100000)" fill="#ffffff" stroke="none">
    <path d="M0 1200 c0 -1200 0 -1200 1200 -1200 1200 0 1200 0 1200 1200 0 1200
0 1200 -1200 1200 -1200 0 -1200 0 -1200 -1200z m700 902 c16 -13 24 -34 29
-77 14 -119 101 -222 213 -256 116 -36 463 -25 537 16 98 54 173 163 169 247
-3 85 67 107 121 39 111 -141 123 -338 30 -499 -40 -69 -30 -72 225 -72 205 0
206 0 206 -70 0 -202 -160 -363 -389 -391 -99 -13 -137 -36 -108 -66 4 -3 -1
-19 -9 -35 -8 -16 -13 -35 -11 -41 4 -14 -58 -152 -84 -186 -17 -21 -19 -43
-19 -176 0 -298 -77 -365 -419 -365 -346 0 -421 63 -421 357 0 107 -4 165 -13
179 -6 12 -25 42 -40 67 -35 57 -68 147 -76 212 -6 50 -6 50 -56 52 -253 8
-435 174 -435 396 0 66 2 66 231 67 256 1 251 -1 189 96 -47 73 -67 208 -43
294 48 172 117 257 173 212z" />
    <path d="M1665 1818 c-84 -112 -82 -110 -66 -116 8 -2 31 -20 51 -38 44 -40
55 -42 74 -11 36 54 46 248 13 247 -7 -1 -39 -37 -72 -82z" />
    <path d="M626 1868 c-23 -87 14 -248 56 -248 40 0 109 109 83 130 -9 7 -37 41
-62 76 -50 68 -67 77 -77 42z" />
    <path d="M859 1625 c-52 -27 -96 -79 -116 -139 -27 -78 -19 -76 -271 -76 -224
0 -224 0 -217 -37 30 -160 226 -273 397 -228 66 17 78 5 78 -80 0 -76 52 -235
96 -292 17 -22 29 -52 32 -82 8 -75 -10 -71 331 -71 344 0 331 -3 331 72 0 41
6 58 38 101 21 29 41 57 45 64 13 20 49 217 44 240 -7 37 26 64 63 51 141 -49
324 29 393 166 48 94 56 91 -206 94 -258 3 -241 -3 -272 98 -19 62 -71 119
-121 133 -87 24 -593 13 -645 -14z m143 -559 c29 -42 -34 -143 -74 -120 -56
31 -73 79 -43 121 24 34 94 34 117 -1z m479 11 c60 -46 -2 -157 -70 -123 -38
20 -45 33 -43 70 5 57 69 87 113 53z" />
    <path d="M900 553 c-39 -8 -49 -43 -34 -121 6 -29 8 -29 59 -28 67 1 77 -9 83
-78 5 -66 5 -66 197 -66 168 0 165 -1 165 66 0 67 22 85 96 82 49 -3 49 -3 52
60 2 36 -2 70 -8 77 -10 12 -545 19 -610 8z" />
  </g>
  <g transform="translate(0.000000,240.000000) scale(0.100000,-0.100000)" fill="#000000" stroke="none">
    <path d="M621 2104 c-87 -73 -141 -277 -106 -394 7 -25 16 -56 19 -71 3 -14
19 -45 35 -69 39 -58 43 -57 -197 -59 -239 -2 -237 -1 -233 -83 10 -236 178
-391 436 -402 50 -2 50 -2 51 -36 2 -48 46 -170 80 -226 16 -25 35 -56 41 -68
9 -14 13 -72 13 -179 0 -208 30 -268 168 -333 86 -40 448 -38 531 4 129 65
161 131 161 337 0 133 2 155 19 176 25 33 92 180 88 193 -3 6 2 24 10 39 8 15
12 36 9 45 -10 30 7 38 109 51 189 24 322 129 369 291 52 180 42 190 -216 193
-230 2 -226 1 -199 48 96 167 81 393 -36 526 -61 70 -135 41 -138 -53 -3 -91
-68 -185 -166 -239 -74 -41 -402 -51 -517 -16 -112 34 -199 137 -213 256 -11
92 -58 120 -118 69z m1120 -363 c-19 -97 -35 -109 -82 -67 -21 20 -44 36 -50
36 -5 0 9 24 33 53 24 29 54 70 68 90 25 37 25 37 33 -11 5 -29 4 -68 -2 -101z
m-1014 32 c43 -52 43 -52 -1 -97 -58 -60 -96 -14 -96 115 0 81 9 97 34 63 12
-16 40 -52 63 -81z m767 -144 c50 -14 102 -71 121 -133 31 -102 14 -96 270
-96 253 0 248 2 208 -76 -71 -140 -241 -209 -394 -161 -35 11 -73 -26 -64 -61
5 -22 -28 -213 -42 -235 -4 -7 -24 -35 -45 -64 -32 -43 -38 -60 -38 -101 0
-75 12 -72 -321 -72 -330 0 -313 -4 -321 71 -3 30 -15 60 -32 82 -44 57 -96
216 -96 292 0 86 -19 107 -77 84 -144 -57 -360 58 -397 213 -6 26 -6 26 216
27 247 2 250 2 268 70 15 55 67 119 119 146 52 27 538 38 625 14z m7 -1095 c5
-7 9 -36 7 -66 -3 -53 -3 -53 -51 -50 -73 6 -97 -15 -97 -82 0 -67 2 -66 -155
-66 -181 0 -182 0 -187 66 -6 69 -16 79 -83 79 -55 0 -55 0 -61 42 -8 56 1 81
34 86 76 10 583 3 593 -9z" />
    <path d="M917 1103 c-63 -10 -81 -98 -29 -145 40 -35 56 -35 99 -2 59 45 33
165 -34 153 -4 -1 -20 -4 -36 -6z" />
    <path d="M1378 1083 c-71 -81 23 -192 108 -128 39 30 42 104 5 132 -25 19 -95
16 -113 -4z" />
  </g>
</svg>