<?xml version="1.0" standalone="yes"?>
<svg xmlns="http://www.w3.org/2000/svg" width="240" height="240">
<path style="fill:#ffffff; stroke:none;" d="M0 0L0 240L240 240L240 0L0 0z"/>
<path style="fill:#010101; stroke:none;" d="M190 114L188.344 112.914L186.929 111.679L185.262 109.941C183.587 108.02 181.979 106.04 180.246 104.17C178.855 102.668 177.379 101.255 175.91 99.8302L172.039 96.0108L169.325 93.1844C168.317 92.1221 167.328 91.0369 166.255 90.0394C164.905 88.7857 163.437 87.6906 161.975 86.5756C160.735 85.6309 159.497 84.6899 158.285 83.7091L154.83 80.8488C153.578 79.8374 152.302 78.8511 150.996 77.9097C149.051 76.5081 147.023 75.2368 145 73.9529C143.012 72.6916 141.034 71.4143 139 70.2284C137.684 69.4612 136.346 68.7371 135 68.0247L133 66.9892L131 65.9282C129.673 65.2053 128.358 64.4697 127 63.8048L125 62.9745C123.695 62.4841 122.344 62.1108 121 61.7462L120 61.5L119 61.2847L117 60.909L115 60.5008L111 59.5139L109 59.1844C107.672 59.025 106.335 59.0288 105 58.9892C103.997 58.9594 102.999 58.9257 102 58.8302C100.326 58.6702 98.6746 58.3285 97 58.1698C95.3415 58.0126 93.6646 57.9753 92 58.0401L90 58.1698L86 58.7153L84 58.9252L81 59.1659C79.3248 59.3638 77.663 59.6397 76 59.9205L73 60.4529C71.6469 60.7366 70.3033 61.0843 69 61.5486C66.8971 62.2978 64.9219 63.3259 63 64.4529L58 67.537C56.3647 68.4861 54.6646 69.314 53 70.2091L51 71.4838L49 73.0424L46 75.5409C43.6888 77.4081 41.2388 79.1132 39.0895 81.1736C37.2054 82.9798 35.5782 85.0284 33.8704 86.9961C32.2577 88.8543 30.6058 90.6777 29.0394 92.5756C27.8389 94.03 26.7012 95.5291 25.5725 97.0394L24.1165 99.0039C22.8966 100.654 21.6627 102.295 20.5193 104C19.2137 105.947 18.0144 107.965 16.8511 110C15.7236 111.972 14.6089 113.962 13.6049 116C12.6456 117.948 11.7959 119.945 11.0949 122C10.6604 123.274 10.3179 124.646 10.3179 126L10.5355 128L11.1883 130L12.0625 132L12.9144 134L14.064 137L14.4637 138L15.3735 140C15.8958 141.016 16.44 142.015 17.0185 143C18.0282 144.72 19.1167 146.386 20.2886 148L22.5756 151C23.3299 151.989 24.0774 152.981 24.7917 154C26.4094 156.307 27.8023 158.769 29.5285 161C30.6107 162.398 31.8013 163.699 33.0008 164.996L35.7145 167.91L37.4097 169.714L39.9198 172.245C41.2938 173.614 42.649 175.005 44.1659 176.218C45.6177 177.38 47.2152 178.34 48.7153 179.435L52.1698 182.115C53.0887 182.805 54.0243 183.462 55.0147 184.046C55.9806 184.617 56.9842 185.089 58 185.561L60 186.424L63 187.78C64.6618 188.557 66.2926 189.398 68 190.074C69.9575 190.849 71.9911 191.402 74 192.024C75.9819 192.637 77.9469 193.332 80 193.674C81.9837 194.005 83.9957 193.989 86 193.999L91 194L102 194L106 193.999L108 193.985C109.336 193.945 110.689 193.911 112 193.624L113 193.402L115 192.818L118 191.833L122 190.493L123 190.163C124.348 189.699 125.69 189.23 127 188.664C128.353 188.079 129.671 187.413 131 186.776C132.679 185.971 134.379 185.199 136 184.279C137.709 183.31 139.317 182.179 141 181.167L146 178.335C147.719 177.328 149.395 176.257 151 175.076C152.383 174.058 153.705 172.968 155 171.842C156.333 170.683 157.62 169.475 159 168.371C160.605 167.087 162.323 165.955 163.961 164.715C165.238 163.747 166.422 162.67 167.576 161.561L171.075 158.05C172.57 156.6 174.118 155.204 175.575 153.715C176.45 152.82 177.299 151.896 178.13 150.961C179.57 149.342 180.995 147.715 182.321 146L184.495 143.024L185.872 141.207L187.333 139.921L188.104 139.631L188.891 139.631L189.653 139.921L191.039 141.207L191.653 142.078L193.344 145.001L194.594 146.999C195.487 148.34 196.475 149.617 197.434 150.91L201.344 156.17L203.344 159.015L207.495 165L208.833 167L211.51 170.995L212.877 172.941L214.376 174.682L215.209 175.397L216.104 175.972L217.043 176.396L219.003 176.833L220.981 176.833L222.852 176.396L224.4 175.397L225.436 173.852L225.772 172.941L226.226 170.995C226.525 169.341 226.785 167.687 226.741 166C226.697 164.32 226.326 162.669 226.17 161C226.014 159.336 226.011 157.67 226.001 156L226 152L226 99L226 89L225.995 85L225.941 83.0008L225.682 81.0154L225.397 80.044L224.972 79.1088L224.397 78.2292L223.682 77.4383L221.941 76.2377L219.999 75.7515L218.039 76.1366L216.174 77.3333L214.464 79.0594L212.885 81.0046L211.35 83L208.289 87L206.887 89L204.951 91.9961C204.108 93.2962 203.251 94.5844 202.329 95.8302C201.014 97.6092 199.541 99.2651 198.285 101.09C197.186 102.688 196.264 104.399 195.169 106C194.033 107.66 192.751 109.212 191.57 110.84L190.981 111.841L190.65 112.329L190 114z"/>
<path style="fill:#ffffff; stroke:none;" d="M62 171L63.0864 172.472L63.517 172.84L64.321 173.631L66.0586 174.931C67.0237 175.577 68.0044 176.196 69.0008 176.792C69.987 177.382 70.9842 177.945 72 178.482L73 178.965L75 179.752C76.3048 180.201 77.6558 180.492 79 180.792L82 181.475C83.6643 181.883 85.3053 182.4 87 182.675C89.3128 183.05 91.665 182.997 94 183L98 182.985C99.0013 182.964 100.004 182.935 101 182.816C102.016 182.694 103.006 182.489 104 182.255L107 181.51L109 181.14C110.349 180.922 111.694 180.735 113 180.316C114.388 179.871 115.684 179.205 117 178.59C117.993 178.126 118.985 177.669 120 177.253L125 175.35C126.707 174.656 128.397 173.901 130 172.989C132.812 171.39 135.294 169.305 138 167.544C139.626 166.486 141.33 165.56 143 164.576C145.066 163.358 147.123 162.122 149 160.621C150.409 159.494 151.71 158.245 153 156.985C154.655 155.37 156.276 153.719 157.999 152.174C160.367 150.05 162.954 148.185 165.255 145.985C166.315 144.971 167.316 143.894 168.309 142.816C169.454 141.573 170.589 140.321 171.639 138.996C172.908 137.394 174.034 135.684 175.19 134L176.57 132L177.852 130C178.549 128.764 179.162 127.452 179.162 126.001C179.162 124.607 178.6 123.244 177.852 122.09L177.235 121.17L175.204 118.576L173.91 116.831L172.049 114.025L171.367 113.086L169.787 111.286C168.911 110.383 167.939 109.571 166.985 108.754C165.372 107.371 163.717 106.03 162.17 104.573L160.425 102.845L157.87 100.17C156.236 98.5466 154.49 97.0416 152.715 95.5764C151.177 94.308 149.609 93.0794 147.996 91.909L143 88.4174L139 85.3356C138.022 84.6015 137.025 83.9089 136 83.2423C135.018 82.6032 134.006 82.004 133 81.4035C131.68 80.6161 130.349 79.8525 129 79.1165L126 77.5872C124.023 76.5952 122.054 75.5815 120 74.7562C119.014 74.36 118.009 74.0066 117 73.6736L114 72.7199L111 71.8596L107 70.7485L106 70.5108L104 70.1458L102 69.885C100.668 69.7319 99.3407 69.5804 98 69.5355C97.0007 69.502 95.999 69.5275 95 69.5579L92 69.6713L90 69.8009L87 70.0046C85.9966 70.0796 84.9919 70.1497 84 70.3279C82.983 70.5107 81.9752 70.76 81 71.1042C78.9723 71.8199 77.0248 72.736 75 73.4591L70 75.0895C67.9147 75.8516 65.9048 76.7869 64 77.9298C61.8751 79.2047 59.8888 80.6994 58 82.3002C56.2828 83.7554 54.6781 85.3352 53 86.8341L48.0401 91.1659C46.7867 92.3119 45.643 93.5674 44.5147 94.8341L43.0147 96.5756L40.8488 99.1698C39.3276 101.073 37.8402 103.006 36.4383 105C35.2892 106.634 34.2303 108.325 33.1427 110L30.5046 114L28.5756 117L26.5802 120L25.2531 122L24.1975 124L23.875 125L23.7438 126L23.8164 127C24.0628 128.495 24.998 129.771 25.8117 131L27.1698 133L27.7948 134L28.9012 136L29.9159 138C30.7799 139.679 31.6305 141.367 32.5802 143C33.1735 144.02 33.8024 145.01 34.4498 145.996L35.8133 147.96L36.5 148.907C37.1677 149.788 37.82 150.681 38.598 151.471C39.6318 152.522 40.8037 153.383 42.0432 154.174C43.3205 154.988 44.6571 155.707 46 156.406L49 157.898C50.2968 158.516 51.6046 159.139 53 159.505C54.6217 159.929 56.3325 160.026 58 159.89L60 159.61L61 159.363L63 158.648C64.0145 158.206 65.0105 157.734 66 157.239C67.0137 156.732 68.013 156.205 69 155.648L70.9992 154.363L71.9961 153.61L73.9599 151.895L75.8117 149.985L76.6597 148.996L77.4429 147.999L78.7863 146L79.3519 145L80.3295 143L81.1628 141C81.5245 140.01 81.8821 139.025 82.1335 138C82.6939 135.714 82.8663 133.321 82.4167 131C81.9346 128.512 80.7849 126.222 79.6111 124C78.7185 122.31 77.7439 120.666 76.8079 119C76.0855 117.715 75.3397 116.409 74.8796 115L74.402 113.001L74.3372 112.005L74.412 111.019L74.6435 110.059L75.0424 109.149L76.3187 107.619L77.1481 107.072L79.0185 106.546L80.9861 106.801L82.9066 107.747L84.6713 109.228L85.4707 110.109L86.2114 111.044L87.5316 113.004C88.9117 115.208 90.0122 117.593 90.9846 120C91.3848 120.991 91.7542 121.987 92.0957 123L92.3904 124L92.7901 126C92.9807 127.322 92.9833 128.668 92.9961 130L93 134L92.9961 138C92.9802 139.001 92.9824 140.001 92.9066 141C92.8299 142.011 92.6943 143.008 92.4823 144C92.2653 145.015 91.9667 146.016 91.6366 147C91.1753 148.374 90.6358 149.719 89.9545 151C89.0207 152.756 87.8537 154.383 86.7014 156C85.7336 157.358 84.7603 158.717 83.6752 159.985C82.5484 161.301 81.3283 162.524 79.9853 163.62L77.9992 165.081L77 165.717L76 166.291L74 167.275L73 167.686L70 168.73L65.1605 170.39L64.159 170.632L63.6713 170.775L62 171M212 104L210.554 105.671L209.449 107.16L206.924 111.002L204.19 115L201.446 119L200.02 121L199.334 122L198.718 123L198.221 124L197.883 125L197.792 127L198.463 129L199.008 130L200.313 132C201.238 133.367 202.236 134.685 203.231 136C203.985 136.997 204.769 137.974 205.483 139L206.795 140.999L208.462 143.941L209.663 145.682L211.063 146.971L211.948 147.41L214 148L214 104L212 104z"/>
<path style="fill:#010101; stroke:none;" d="M45.0154 118.668C43.0689 119.239 41.2161 120.431 40.1829 122.214L39.473 124.043L39.3187 125.015L39.2832 126.003L39.3488 126.997L39.7276 128.957L40.0332 129.895L40.9383 131.606L42.3032 132.991L43.1443 133.543L44.0579 133.99L46.0046 134.59L47.9992 134.786L49.9846 134.551L51.8951 133.82L52.7863 133.258L53.6049 132.566L54.3434 131.772L54.9753 130.891L55.5 129.956L56.1343 127.996L56.1481 126.004L55.9252 125.015L55.5895 124.043L54.6289 122.214L54.0293 121.394L53.3619 120.653L51.787 119.458L49.9568 118.668L47.9961 118.319L47 118.319L45.0154 118.668z"/>
</svg>
